<svg xmlns="http://www.w3.org/2000/svg" viewBox="0 0 93.08 93.08"><defs><style>.cls-1{fill:#231f20;}</style></defs><title>TD 2 (BLACK)</title><g id="Layer_2" data-name="Layer 2"><g id="Layer_2-2" data-name="Layer 2"><path class="cls-1" d="M46.54,93.08A46.54,46.54,0,1,1,93.08,46.54,46.6,46.6,0,0,1,46.54,93.08Zm0-88.83A42.29,42.29,0,1,0,88.83,46.54,42.34,42.34,0,0,0,46.54,4.25Z"/><path class="cls-1" d="M79,43.17c0,7.37-3,13.77-8.16,17.8-4,3.06-8.85,4.48-15.37,4.48H39a.69.69,0,0,1-.67-.83l4.48-21a.68.68,0,0,1,.67-.54H53.87a.68.68,0,0,1,.67.82L52.31,54.47a.68.68,0,0,0,.67.83h2.84c4,0,6.12-.74,7.82-2.66a14.35,14.35,0,0,0,3.29-9c0-4.31-2-6.35-6.4-6.35H37.31a.68.68,0,0,0-.67.54L36,41.11l-5.08,23.8a.69.69,0,0,1-.67.54H19.64a.69.69,0,0,1-.67-.83l5.66-26.53a.68.68,0,0,0-.67-.82H14.82a.69.69,0,0,1-.67-.83l1.75-8.26a.68.68,0,0,1,.67-.54H62.06c6.57,0,9.75,1,12.69,3.85C77.53,34.21,79,38.18,79,43.17Z"/></g></g></svg>