<svg width="320" height="54" viewBox="0 0 320 54" fill="none" xmlns="http://www.w3.org/2000/svg">
<path d="M10.6496 31.2004H5.43971C5.36468 31.2028 5.29011 31.1874 5.22194 31.1554C5.15377 31.1234 5.09386 31.0756 5.04696 31.0159C5.00006 30.9562 4.96747 30.8862 4.95176 30.8115C4.93605 30.7367 4.93767 30.6593 4.95647 30.5853L9.75864 7.61207C9.77745 7.53806 9.77906 7.46061 9.76335 7.38586C9.74765 7.31111 9.71505 7.24111 9.66815 7.18141C9.62126 7.12172 9.56135 7.07397 9.49317 7.04196C9.425 7.00995 9.35044 6.99455 9.2754 6.99699H1.49831C1.42203 7.00193 1.34569 6.98838 1.27556 6.95745C1.20542 6.92652 1.14349 6.87909 1.09486 6.81906C1.04622 6.75903 1.01226 6.6881 0.995762 6.61211C0.979268 6.53612 0.980711 6.45723 0.999973 6.38191L1.87584 2.19937C1.90291 2.08552 1.96674 1.98422 2.05711 1.91172C2.14748 1.83922 2.25913 1.79973 2.37418 1.79957H24.6484C24.7234 1.79596 24.7983 1.80968 24.8675 1.83972C24.9366 1.86975 24.9981 1.91531 25.0475 1.97299C25.0969 2.03067 25.1328 2.09898 25.1526 2.1728C25.1724 2.24662 25.1756 2.32404 25.1618 2.39927L24.2557 6.59719C24.2344 6.71114 24.1742 6.81375 24.0858 6.8869C23.9974 6.96005 23.8864 6.99904 23.7725 6.99699H16.4787C16.3655 6.99786 16.256 7.03792 16.1682 7.11058C16.0803 7.18325 16.0194 7.28418 15.9954 7.39679L11.1479 30.8006C11.1209 30.9144 11.057 31.0157 10.9667 31.0882C10.8763 31.1607 10.7646 31.2002 10.6496 31.2004Z" fill="#231F20"/>
<path d="M31.8063 18.6835L29.2391 30.8006C29.2178 30.9145 29.1576 31.0171 29.0692 31.0903C28.9807 31.1634 28.8698 31.2024 28.7559 31.2004H23.6517C23.5776 31.1998 23.5046 31.1824 23.4379 31.1495C23.3712 31.1165 23.3126 31.0689 23.2663 31.0099C23.22 30.951 23.1872 30.8823 23.1703 30.8089C23.1534 30.7354 23.1527 30.659 23.1685 30.5853L29.073 2.19937C29.0947 2.08273 29.1571 1.97801 29.2487 1.90454C29.3403 1.83106 29.4549 1.79378 29.5713 1.79957H34.6906C34.7645 1.79831 34.8376 1.81378 34.9049 1.84483C34.9721 1.87589 35.0317 1.92178 35.0794 1.97916C35.1271 2.03655 35.1616 2.10401 35.1806 2.17666C35.1995 2.24932 35.2024 2.32535 35.189 2.39927L33.1352 12.2405C33.1221 12.3152 33.125 12.3919 33.1439 12.4653C33.1628 12.5387 33.1971 12.607 33.2445 12.6656C33.292 12.7241 33.3513 12.7714 33.4185 12.8042C33.4857 12.837 33.5591 12.8546 33.6336 12.8556H44.0836C44.1975 12.8577 44.3084 12.8187 44.3968 12.7455C44.4853 12.6724 44.5454 12.5698 44.5668 12.4558L46.6961 2.19937C46.7206 2.08416 46.7837 1.98124 46.8747 1.90829C46.9656 1.83533 47.0786 1.79689 47.1944 1.79957H52.3439C52.4177 1.79831 52.4909 1.81378 52.5581 1.84483C52.6253 1.87589 52.6849 1.92178 52.7326 1.97916C52.7803 2.03655 52.8149 2.10401 52.8338 2.17666C52.8528 2.24932 52.8557 2.32535 52.8422 2.39927L46.8169 30.8006C46.7955 30.9145 46.7353 31.0171 46.6469 31.0903C46.5585 31.1634 46.4475 31.2024 46.3336 31.2004H41.2596C41.1843 31.2021 41.1095 31.1864 41.0409 31.1545C40.9724 31.1226 40.9118 31.0752 40.8639 31.016C40.8159 30.9568 40.7817 30.8872 40.764 30.8126C40.7462 30.738 40.7453 30.6603 40.7613 30.5853L43.2832 18.8988C43.2963 18.8241 43.2934 18.7474 43.2745 18.674C43.2556 18.6006 43.2213 18.5323 43.1739 18.4738C43.1265 18.4152 43.0671 18.3679 42.9999 18.3351C42.9327 18.3023 42.8594 18.2847 42.7849 18.2837H32.2896C32.1764 18.2846 32.0669 18.3246 31.9791 18.3973C31.8912 18.47 31.8303 18.5709 31.8063 18.6835Z" fill="#231F20"/>
<path d="M78.6501 3.55255C81.5495 5.76683 83.1804 9.54957 83.1804 14.178C83.1804 24.0654 76.1131 32 67.3695 32C64.2051 32.0484 61.1253 30.9594 58.6713 28.9246C57.3118 27.6652 56.2446 26.1136 55.5472 24.3821C54.8498 22.6507 54.5397 20.7828 54.6393 18.9142C54.5606 14.2142 56.2147 9.6549 59.2753 6.13588C60.7069 4.48605 62.4731 3.17237 64.452 2.28564C66.431 1.3989 68.5754 0.960237 70.7371 0.999967C73.5762 0.958824 76.3521 1.85429 78.6501 3.55255ZM64.0171 9.14977C61.8427 12.0013 60.6536 15.5039 60.6344 19.1141C60.6344 23.8348 63.3224 26.9256 67.3544 26.9256C72.5945 26.9256 77.0947 20.7748 77.0947 13.7014C77.0947 8.88836 74.5879 5.84372 70.6012 5.84372C69.3285 5.84536 68.0731 6.14425 66.9317 6.7174C65.7903 7.29055 64.7931 8.12268 64.0171 9.14977Z" fill="#231F20"/>
<path d="M101.74 22.2663L112.114 2.06098C112.159 1.97911 112.225 1.91136 112.305 1.86523C112.385 1.8191 112.475 1.79637 112.567 1.79957H120.118C120.191 1.79775 120.264 1.813 120.331 1.84416C120.398 1.87531 120.457 1.92155 120.503 1.97936C120.55 2.03718 120.583 2.10504 120.6 2.1778C120.617 2.25056 120.617 2.3263 120.601 2.39927L114.591 30.8006C114.567 30.9132 114.506 31.0141 114.418 31.0868C114.33 31.1594 114.221 31.1995 114.108 31.2004H109.109C109.034 31.2028 108.96 31.1874 108.891 31.1554C108.823 31.1234 108.763 31.0756 108.716 31.0159C108.669 30.9562 108.637 30.8862 108.621 30.8115C108.605 30.7367 108.607 30.6593 108.626 30.5853L112.552 11.8407C112.552 11.7945 112.536 11.7497 112.508 11.714C112.479 11.6783 112.439 11.6538 112.394 11.6447C112.35 11.6357 112.304 11.6426 112.264 11.6643C112.224 11.686 112.192 11.7212 112.175 11.7639L102.314 30.9851C102.27 31.0687 102.205 31.1386 102.125 31.1874C102.045 31.2361 101.954 31.2619 101.861 31.2619H97.8587C97.7364 31.2628 97.618 31.2179 97.5261 31.1356C97.4342 31.0534 97.3752 30.9396 97.3604 30.8159L95.2462 11.6101C95.2462 11.5571 95.2256 11.5062 95.1887 11.4687C95.1519 11.4312 95.102 11.4102 95.0499 11.4102C94.9979 11.4102 94.9479 11.4312 94.9111 11.4687C94.8743 11.5062 94.8536 11.5571 94.8536 11.6101L90.8216 30.8006C90.7976 30.9132 90.7367 31.0141 90.6489 31.0868C90.561 31.1594 90.4515 31.1995 90.3384 31.2004H85.2946C85.2196 31.2028 85.145 31.1874 85.0768 31.1554C85.0086 31.1234 84.9487 31.0756 84.9018 31.0159C84.8549 30.9562 84.8223 30.8862 84.8066 30.8115C84.7909 30.7367 84.7925 30.6593 84.8113 30.5853L90.7461 2.19937C90.7645 2.08399 90.8239 1.97952 90.913 1.90581C91.0021 1.8321 91.1147 1.79429 91.2293 1.79957H98.6138C98.6785 1.79102 98.7442 1.7959 98.807 1.81391C98.8698 1.83192 98.9283 1.86268 98.9791 1.90435C99.0299 1.94601 99.0719 1.99772 99.1026 2.05635C99.1332 2.11498 99.1519 2.17933 99.1574 2.2455L101.423 22.2356C101.438 22.2629 101.46 22.2861 101.486 22.3031C101.513 22.3202 101.542 22.3306 101.573 22.3336C101.604 22.3366 101.636 22.3321 101.665 22.3204C101.693 22.3087 101.719 22.2902 101.74 22.2663Z" fill="#231F20"/>
<path d="M128.167 24.8497L124.905 30.8928C124.853 30.9849 124.778 31.0616 124.688 31.1155C124.598 31.1694 124.496 31.1987 124.391 31.2004H119.635C119.534 31.1988 119.436 31.1711 119.349 31.1199C119.262 31.0688 119.189 30.9958 119.138 30.9079C119.086 30.8201 119.058 30.7203 119.055 30.6181C119.052 30.5159 119.075 30.4146 119.121 30.3239L135.128 2.09173C135.18 2.00372 135.253 1.93066 135.34 1.87951C135.427 1.82836 135.526 1.80084 135.627 1.79957H140.746C140.881 1.80017 141.011 1.84782 141.116 1.93458C141.22 2.02133 141.292 2.14193 141.32 2.27626L146.394 30.5084C146.407 30.5932 146.402 30.6799 146.379 30.7626C146.356 30.8453 146.316 30.922 146.262 30.9876C146.207 31.0532 146.14 31.1062 146.064 31.1429C145.987 31.1796 145.904 31.1992 145.82 31.2004H140.867C140.728 31.1984 140.594 31.1464 140.489 31.0535C140.384 30.9606 140.314 30.8329 140.293 30.6929L139.478 25.0496C139.459 24.9083 139.391 24.7787 139.285 24.6852C139.179 24.5918 139.044 24.5409 138.904 24.5421H128.665C128.562 24.5417 128.461 24.5703 128.373 24.6245C128.286 24.6788 128.214 24.7567 128.167 24.8497ZM136.427 9.70334L131.232 19.2986C131.182 19.3875 131.155 19.4884 131.155 19.5911C131.155 19.6938 131.182 19.7946 131.233 19.8835C131.283 19.9724 131.356 20.0461 131.443 20.0973C131.531 20.1485 131.63 20.1753 131.731 20.1751H138.088C138.171 20.1736 138.253 20.1543 138.328 20.1186C138.403 20.0828 138.47 20.0313 138.524 19.9674C138.578 19.9036 138.618 19.8288 138.642 19.748C138.666 19.6672 138.673 19.5822 138.662 19.4985L137.152 9.85711C137.13 9.78353 137.088 9.71737 137.033 9.66553C136.977 9.61369 136.908 9.57807 136.834 9.56236C136.76 9.54666 136.683 9.55146 136.612 9.57625C136.54 9.60105 136.476 9.64493 136.427 9.70334Z" fill="#231F20"/>
<path d="M168.864 10.5645C168.658 10.5609 168.461 10.478 168.313 10.3325C168.164 10.1871 168.075 9.98972 168.064 9.78022C168.086 9.29942 168.013 8.81897 167.85 8.36731C167.687 7.91565 167.436 7.50197 167.113 7.15076C166.588 6.66396 165.973 6.28823 165.304 6.04538C164.635 5.80252 163.926 5.69739 163.217 5.73608C160.317 5.73608 158.278 7.27378 158.278 9.3958C158.278 10.9335 159.23 11.7331 162.175 12.7941C167.369 14.6394 169.197 15.4697 170.359 16.4846C171.108 17.0987 171.709 17.8798 172.115 18.7676C172.521 19.6553 172.721 20.6261 172.7 21.6051C172.663 23.1552 172.276 24.6758 171.569 26.049C170.862 27.4223 169.854 28.6114 168.623 29.5243C166.031 31.2521 162.975 32.1172 159.879 32C152.902 32 148.84 28.6017 148.84 22.866C148.811 22.4309 148.811 21.9942 148.84 21.559C148.862 21.3618 148.954 21.1796 149.099 21.0466C149.243 20.9135 149.431 20.8387 149.625 20.8363H154.156C154.268 20.8379 154.379 20.8632 154.482 20.9106C154.584 20.958 154.676 21.0264 154.751 21.1116C154.826 21.1969 154.883 21.297 154.918 21.4057C154.954 21.5145 154.967 21.6295 154.956 21.7435C154.956 21.9742 154.956 22.0664 154.956 22.2048C154.956 24.9419 157.327 26.8179 160.619 26.8179C163.639 26.8179 165.905 25.0957 165.905 22.8045C165.905 21.3898 165.21 20.4672 163.564 19.7291C163.005 19.4523 162.175 19.1448 158.928 18.0069C156.918 17.4477 155.055 16.4391 153.476 15.0545C152.339 13.7997 151.718 12.1487 151.74 10.4414C151.739 9.14814 152.007 7.86937 152.528 6.68974C153.049 5.51011 153.809 4.45652 154.76 3.59868C157.298 1.64657 160.456 0.720784 163.624 0.999967C170.374 0.999967 174.195 3.95235 174.195 9.28816V9.76485C174.195 9.87116 174.174 9.97641 174.134 10.0744C174.093 10.1725 174.034 10.2613 173.96 10.3358C173.885 10.4102 173.797 10.4688 173.7 10.5081C173.603 10.5473 173.499 10.5665 173.395 10.5645H168.864Z" fill="#231F20"/>
<path d="M189.039 2.53767C189.094 2.30995 189.221 2.10735 189.402 1.96236C189.583 1.81736 189.806 1.73837 190.036 1.73806H199.429C204.156 1.73806 206.617 2.52229 208.746 4.69044C209.834 5.91018 210.672 7.33735 211.214 8.88936C211.756 10.4414 211.99 12.0874 211.903 13.7321C211.955 16.3343 211.456 18.9175 210.44 21.3056C209.423 23.6938 207.914 25.8309 206.013 27.5714C202.867 30.0976 198.931 31.381 194.929 31.185H184.358C184.207 31.1861 184.057 31.1526 183.92 31.0869C183.783 31.0212 183.662 30.9251 183.567 30.8055C183.471 30.686 183.403 30.5461 183.367 30.3962C183.332 30.2463 183.33 30.0902 183.361 29.9395L189.039 2.53767ZM195.08 25.7569C198.674 25.7569 200.803 24.9266 202.631 22.8968C204.652 20.3695 205.751 17.207 205.741 13.9474C205.813 12.8995 205.669 11.8479 205.318 10.8601C204.966 9.87237 204.416 8.97028 203.703 8.21177C202.267 7.13904 200.49 6.65097 198.719 6.84322H195.171C194.94 6.84218 194.715 6.92288 194.536 7.07154C194.357 7.2202 194.234 7.42757 194.189 7.6582L190.67 24.5729C190.639 24.7216 190.64 24.8757 190.675 25.0238C190.71 25.1718 190.777 25.31 190.871 25.4282C190.965 25.5463 191.084 25.6413 191.219 25.7062C191.355 25.7711 191.503 25.8042 191.652 25.803L195.08 25.7569Z" fill="#231F20"/>
<path d="M219.166 24.8035L215.859 30.9543C215.817 31.035 215.754 31.1021 215.677 31.1483C215.599 31.1945 215.511 31.2178 215.421 31.2157H210.468C210.381 31.2182 210.294 31.1965 210.218 31.1529C210.142 31.1092 210.078 31.0453 210.035 30.968C209.992 30.8907 209.97 30.8028 209.971 30.7137C209.973 30.6246 209.999 30.5377 210.045 30.4623L226.143 2.0456C226.185 1.96904 226.246 1.90559 226.321 1.86219C226.395 1.8188 226.48 1.79713 226.566 1.79957H231.791C231.909 1.79757 232.023 1.83819 232.115 1.9142C232.206 1.99022 232.268 2.09671 232.289 2.21475L237.393 30.6007C237.404 30.6742 237.399 30.7492 237.379 30.8207C237.359 30.8922 237.325 30.9586 237.277 31.0153C237.23 31.0721 237.172 31.118 237.106 31.1499C237.04 31.1818 236.968 31.199 236.895 31.2004H231.776C231.657 31.1987 231.542 31.1548 231.451 31.0762C231.36 30.9977 231.298 30.8893 231.277 30.7698L230.537 24.9727C230.516 24.8532 230.455 24.7448 230.364 24.6662C230.273 24.5877 230.158 24.5438 230.039 24.5421H219.68C219.578 24.5287 219.475 24.5464 219.384 24.5929C219.292 24.6395 219.217 24.7128 219.166 24.8035ZM227.306 9.88786L222.141 19.4523C222.099 19.5298 222.078 19.617 222.079 19.7055C222.08 19.794 222.104 19.8807 222.148 19.9568C222.192 20.033 222.256 20.0961 222.331 20.1397C222.407 20.1834 222.492 20.2062 222.579 20.2058H229.163C229.236 20.2067 229.307 20.1915 229.373 20.1613C229.439 20.1312 229.498 20.0867 229.545 20.0311C229.593 19.9755 229.628 19.9101 229.648 19.8394C229.668 19.7686 229.673 19.6943 229.662 19.6215L228.227 10.0878C228.214 9.98305 228.17 9.88499 228.1 9.80722C228.03 9.72945 227.938 9.67584 227.836 9.65384C227.735 9.63185 227.629 9.64257 227.534 9.68452C227.439 9.72646 227.359 9.79754 227.306 9.88786Z" fill="#231F20"/>
<path d="M261.57 26.5719L260.664 30.8006C260.64 30.9132 260.579 31.0141 260.491 31.0868C260.404 31.1594 260.294 31.1995 260.181 31.2004H241.018C240.943 31.1993 240.87 31.1818 240.803 31.149C240.735 31.1161 240.676 31.0688 240.629 31.0103C240.581 30.9518 240.547 30.8834 240.528 30.8101C240.509 30.7367 240.506 30.66 240.519 30.5853L246.469 2.19937C246.488 2.08399 246.547 1.97952 246.636 1.90581C246.725 1.8321 246.838 1.79429 246.952 1.79957H252.087C252.159 1.80058 252.231 1.8177 252.296 1.84974C252.362 1.88178 252.419 1.92797 252.465 1.98509C252.511 2.0422 252.544 2.10885 252.563 2.18039C252.581 2.25193 252.583 2.32663 252.57 2.39927L247.798 25.3417C247.782 25.4155 247.783 25.4918 247.8 25.5653C247.817 25.6388 247.85 25.7075 247.896 25.7664C247.942 25.8253 248.001 25.873 248.067 25.9059C248.134 25.9389 248.207 25.9562 248.281 25.9568H261.087C261.161 25.9574 261.234 25.9748 261.301 26.0077C261.368 26.0407 261.426 26.0883 261.472 26.1472C261.519 26.2062 261.552 26.2749 261.568 26.3483C261.585 26.4218 261.586 26.4982 261.57 26.5719Z" fill="#231F20"/>
<path d="M270.284 2.16862C270.307 2.0642 270.365 1.97098 270.447 1.90402C270.529 1.83706 270.631 1.80026 270.737 1.79957H281.021C284.66 1.79957 285.687 1.92259 287.061 2.53766C288.254 3.09677 289.259 4.00194 289.949 5.13982C290.64 6.2777 290.985 7.5977 290.942 8.93449C291.002 10.4178 290.594 11.8816 289.779 13.1125C288.964 14.3435 287.784 15.2771 286.412 15.7772V16.1463C287.48 16.6632 288.376 17.4881 288.988 18.5187C289.6 19.5492 289.901 20.74 289.855 21.9434C289.862 23.6938 289.349 25.4054 288.385 26.8542C287.42 28.3029 286.048 29.4212 284.449 30.0625C282.186 31.0193 279.732 31.4095 277.291 31.2004H264.923C264.854 31.1994 264.787 31.1831 264.725 31.1527C264.663 31.1222 264.609 31.0782 264.565 31.0239C264.522 30.9697 264.491 30.9063 264.475 30.8385C264.458 30.7707 264.456 30.7 264.47 30.6314L270.284 2.16862ZM276.324 26.126C277.847 26.2759 279.385 26.1298 280.854 25.6954C281.724 25.4315 282.487 24.8899 283.031 24.1506C283.574 23.4113 283.87 22.5135 283.875 21.5897C283.882 20.8026 283.63 20.0356 283.16 19.4113C282.689 18.7869 282.026 18.3412 281.277 18.1453C280.178 17.8298 279.031 17.7256 277.895 17.8378H273.364C273.257 17.8392 273.153 17.8782 273.071 17.9482C272.988 18.0182 272.932 18.1149 272.911 18.2222L271.401 25.557C271.388 25.6269 271.39 25.6989 271.407 25.7679C271.424 25.8368 271.457 25.9009 271.502 25.9555C271.546 26.0101 271.603 26.0537 271.666 26.0832C271.73 26.1127 271.799 26.1273 271.869 26.126H276.324ZM278.574 13.8244C279.886 13.9864 281.217 13.8499 282.47 13.4246C282.995 13.2573 283.478 12.9743 283.883 12.5957C284.289 12.2171 284.607 11.7521 284.816 11.2339C285.026 10.7157 285.12 10.157 285.093 9.59744C285.066 9.03789 284.918 8.49129 284.66 7.99649C284.24 7.33053 283.596 6.84381 282.848 6.62794C281.848 6.4757 280.836 6.43445 279.828 6.50493H275.841C275.733 6.5021 275.628 6.53728 275.542 6.60453C275.457 6.67177 275.397 6.76695 275.373 6.87397L274.059 13.24C274.046 13.3094 274.048 13.3808 274.064 13.4494C274.08 13.5181 274.111 13.5823 274.154 13.6377C274.197 13.6931 274.251 13.7385 274.313 13.7707C274.375 13.8029 274.443 13.8212 274.512 13.8244H278.574Z" fill="#231F20"/>
<path d="M318.894 2.53766L306.511 20.0674C306.343 20.2993 306.229 20.5677 306.179 20.8517L304.095 30.7391C304.071 30.8517 304.01 30.9526 303.922 31.0253C303.835 31.0979 303.725 31.138 303.612 31.1389H298.342C298.267 31.1383 298.194 31.1209 298.128 31.088C298.061 31.055 298.002 31.0073 297.956 30.9484C297.91 30.8895 297.877 30.8208 297.86 30.7474C297.843 30.6739 297.843 30.5975 297.858 30.5238L299.897 20.7901C299.983 20.3785 299.946 19.9501 299.791 19.56L292.951 2.53766C292.917 2.46184 292.904 2.37871 292.91 2.29601C292.917 2.21331 292.945 2.13373 292.99 2.06468C293.035 1.99562 293.097 1.93933 293.169 1.90104C293.241 1.86276 293.322 1.84372 293.404 1.8457H298.991C299.092 1.84489 299.191 1.87534 299.274 1.93301C299.358 1.99067 299.422 2.07284 299.459 2.16862L303.672 13.3016C303.706 13.387 303.762 13.4614 303.835 13.5168C303.907 13.5722 303.993 13.6065 304.083 13.616C304.173 13.6255 304.264 13.6098 304.346 13.5706C304.428 13.5315 304.498 13.4704 304.548 13.3938L312.099 1.95334C312.147 1.88559 312.211 1.83066 312.284 1.7932C312.358 1.75574 312.439 1.73683 312.522 1.73806H318.471C318.566 1.72852 318.662 1.74777 318.746 1.7934C318.83 1.83902 318.899 1.90897 318.944 1.99446C318.99 2.07994 319.009 2.17712 319 2.27378C318.991 2.37044 318.954 2.46226 318.894 2.53766Z" fill="#231F20"/>
<path d="M244.856 52L247.112 43.6H249.86C251.228 43.6 252.128 43.876 252.74 44.488C253.184 44.932 253.4 45.508 253.4 46.204C253.4 48.292 251.708 49.588 249.224 49.588H247.844L247.196 52H244.856ZM248.324 47.776H249.2C250.352 47.776 251.012 47.26 251.012 46.468C251.012 46.24 250.928 46.036 250.772 45.88C250.544 45.652 250.208 45.556 249.776 45.556H248.912L248.324 47.776Z" fill="black"/>
<path d="M256.518 52L258.774 43.6H261.114L260.262 46.744H263.226L264.066 43.6H266.406L264.15 52H261.81L262.674 48.808H259.71L258.858 52H256.518Z" fill="black"/>
<path d="M273.977 52.156C271.589 52.156 269.969 50.524 269.969 48.388C269.969 45.832 272.057 43.444 274.973 43.444C277.361 43.444 278.98 45.076 278.98 47.212C278.98 49.768 276.893 52.156 273.977 52.156ZM274.181 50.068C275.657 50.068 276.604 48.64 276.604 47.392C276.604 46.324 275.956 45.532 274.768 45.532C273.304 45.532 272.345 46.96 272.345 48.208C272.345 49.276 272.993 50.068 274.181 50.068Z" fill="black"/>
<path d="M283.862 52L285.578 45.64H283.058L283.61 43.6H290.966L290.426 45.64H287.906L286.202 52H283.862Z" fill="black"/>
<path d="M297.958 52.156C295.57 52.156 293.95 50.524 293.95 48.388C293.95 45.832 296.038 43.444 298.954 43.444C301.342 43.444 302.962 45.076 302.962 47.212C302.962 49.768 300.874 52.156 297.958 52.156ZM298.162 50.068C299.638 50.068 300.586 48.64 300.586 47.392C300.586 46.324 299.938 45.532 298.75 45.532C297.286 45.532 296.326 46.96 296.326 48.208C296.326 49.276 296.974 50.068 298.162 50.068Z" fill="black"/>
<path d="M7.02797 52.144C5.82797 52.144 4.82397 51.728 4.01597 50.896C3.21597 50.064 2.81597 49.04 2.81597 47.824V47.8C2.81597 46.592 3.21997 45.568 4.02797 44.728C4.83597 43.88 5.84797 43.456 7.06397 43.456C7.77597 43.456 8.38397 43.568 8.88797 43.792C9.39197 44.016 9.87597 44.348 10.34 44.788L9.69197 45.484C8.88397 44.716 8.00397 44.332 7.05197 44.332C6.12397 44.332 5.34797 44.664 4.72397 45.328C4.10797 45.992 3.79997 46.808 3.79997 47.776V47.8C3.79997 48.776 4.11197 49.6 4.73597 50.272C5.35997 50.936 6.13197 51.268 7.05197 51.268C7.59597 51.268 8.07597 51.168 8.49197 50.968C8.90797 50.768 9.33197 50.464 9.76397 50.056L10.388 50.668C9.90797 51.156 9.40797 51.524 8.88797 51.772C8.36797 52.02 7.74797 52.144 7.02797 52.144Z" fill="black"/>
<path d="M14.2182 52.132C13.4822 52.132 12.9022 51.908 12.4782 51.46C12.0542 51.004 11.8422 50.4 11.8422 49.648V45.796H12.7662V49.42C12.7662 50.004 12.9142 50.464 13.2102 50.8C13.5142 51.128 13.9382 51.292 14.4822 51.292C15.0182 51.292 15.4622 51.112 15.8142 50.752C16.1662 50.392 16.3422 49.924 16.3422 49.348V45.796H17.2542V52H16.3422V50.92C15.8382 51.728 15.1302 52.132 14.2182 52.132Z" fill="black"/>
<path d="M19.3328 52V45.796H20.2568V47.416C20.4968 46.88 20.8368 46.452 21.2768 46.132C21.7168 45.812 22.2208 45.664 22.7888 45.688V46.684H22.7168C22.0048 46.684 21.4168 46.932 20.9528 47.428C20.4888 47.924 20.2568 48.624 20.2568 49.528V52H19.3328Z" fill="black"/>
<path d="M24.196 52V45.796H25.12V47.416C25.36 46.88 25.7 46.452 26.14 46.132C26.58 45.812 27.084 45.664 27.652 45.688V46.684H27.58C26.868 46.684 26.28 46.932 25.816 47.428C25.352 47.924 25.12 48.624 25.12 49.528V52H24.196Z" fill="black"/>
<path d="M31.5018 52.144C30.6298 52.144 29.8938 51.844 29.2938 51.244C28.7018 50.636 28.4058 49.86 28.4058 48.916V48.892C28.4058 47.988 28.6898 47.224 29.2578 46.6C29.8258 45.976 30.5338 45.664 31.3818 45.664C32.2698 45.664 32.9738 45.976 33.4938 46.6C34.0138 47.224 34.2738 48.004 34.2738 48.94C34.2738 49.068 34.2698 49.168 34.2618 49.24H29.3418C29.4058 49.896 29.6418 50.412 30.0498 50.788C30.4658 51.156 30.9578 51.34 31.5258 51.34C32.2698 51.34 32.9218 51.048 33.4818 50.464L34.0578 50.98C33.3618 51.756 32.5098 52.144 31.5018 52.144ZM29.3418 48.556H33.3378C33.2898 47.948 33.0938 47.444 32.7498 47.044C32.4058 46.644 31.9418 46.444 31.3578 46.444C30.8218 46.444 30.3658 46.644 29.9898 47.044C29.6218 47.444 29.4058 47.948 29.3418 48.556Z" fill="black"/>
<path d="M35.8913 52V45.796H36.8153V46.876C37.3033 46.068 38.0113 45.664 38.9393 45.664C39.6753 45.664 40.2553 45.892 40.6793 46.348C41.1033 46.796 41.3153 47.396 41.3153 48.148V52H40.3913V48.376C40.3913 47.792 40.2393 47.336 39.9353 47.008C39.6393 46.672 39.2193 46.504 38.6753 46.504C38.1393 46.504 37.6953 46.684 37.3433 47.044C36.9913 47.404 36.8153 47.872 36.8153 48.448V52H35.8913Z" fill="black"/>
<path d="M45.3619 52.108C44.8259 52.108 44.3979 51.968 44.0779 51.688C43.7659 51.4 43.6099 50.956 43.6099 50.356V46.612H42.7459V45.796H43.6099V43.924H44.5339V45.796H46.5019V46.612H44.5339V50.236C44.5339 50.924 44.8819 51.268 45.5779 51.268C45.8819 51.268 46.1819 51.196 46.4779 51.052V51.844C46.1419 52.02 45.7699 52.108 45.3619 52.108Z" fill="black"/>
<path d="M48.2214 52V43.24H49.1454V52H48.2214Z" fill="black"/>
<path d="M53.9418 50.968L55.9338 45.796H56.9178L54.3138 52.204C54.0498 52.836 53.7578 53.284 53.4378 53.548C53.1178 53.82 52.7218 53.956 52.2498 53.956C51.8018 53.956 51.3618 53.852 50.9298 53.644L51.2418 52.912C51.5378 53.064 51.8618 53.14 52.2138 53.14C52.4938 53.14 52.7298 53.052 52.9218 52.876C53.1138 52.708 53.3018 52.408 53.4858 51.976L50.6658 45.796H51.6858L53.9418 50.968Z" fill="black"/>
<path d="M62.0613 52V43.24H62.9853V52H62.0613Z" fill="black"/>
<path d="M70.2776 51.196C69.6536 51.828 68.8816 52.144 67.9616 52.144C67.0416 52.144 66.2736 51.832 65.6576 51.208C65.0496 50.576 64.7456 49.816 64.7456 48.928V48.904C64.7456 48.016 65.0536 47.256 65.6696 46.624C66.2936 45.984 67.0656 45.664 67.9856 45.664C68.9056 45.664 69.6736 45.98 70.2896 46.612C70.9056 47.236 71.2136 47.992 71.2136 48.88V48.904C71.2136 49.792 70.9016 50.556 70.2776 51.196ZM67.9856 51.316C68.6496 51.316 69.1936 51.084 69.6176 50.62C70.0496 50.156 70.2656 49.592 70.2656 48.928V48.904C70.2656 48.232 70.0416 47.66 69.5936 47.188C69.1536 46.716 68.6096 46.48 67.9616 46.48C67.3056 46.48 66.7616 46.716 66.3296 47.188C65.9056 47.652 65.6936 48.216 65.6936 48.88V48.904C65.6936 49.576 65.9136 50.148 66.3536 50.62C66.7936 51.084 67.3376 51.316 67.9856 51.316Z" fill="black"/>
<path d="M75.6834 52.144C74.7874 52.144 74.0314 51.828 73.4154 51.196C72.8074 50.564 72.5034 49.808 72.5034 48.928V48.904C72.5034 48.016 72.8074 47.256 73.4154 46.624C74.0314 45.984 74.7874 45.664 75.6834 45.664C76.6434 45.664 77.4714 46.032 78.1674 46.768L77.5554 47.416C76.9634 46.792 76.3354 46.48 75.6714 46.48C75.0474 46.48 74.5194 46.712 74.0874 47.176C73.6634 47.64 73.4514 48.208 73.4514 48.88V48.904C73.4514 49.576 73.6674 50.148 74.0994 50.62C74.5394 51.084 75.0834 51.316 75.7314 51.316C76.4194 51.316 77.0514 51.008 77.6274 50.392L78.2154 50.944C77.4954 51.744 76.6514 52.144 75.6834 52.144Z" fill="black"/>
<path d="M81.5909 52.132C80.9669 52.132 80.4229 51.96 79.9589 51.616C79.5029 51.272 79.2749 50.8 79.2749 50.2V50.176C79.2749 49.536 79.5149 49.044 79.9949 48.7C80.4749 48.348 81.1189 48.172 81.9269 48.172C82.5749 48.172 83.2109 48.26 83.8349 48.436V48.22C83.8349 47.668 83.6749 47.248 83.3549 46.96C83.0349 46.672 82.5789 46.528 81.9869 46.528C81.3949 46.528 80.7669 46.68 80.1029 46.984L79.8269 46.228C80.5789 45.884 81.3309 45.712 82.0829 45.712C82.9629 45.712 83.6309 45.94 84.0869 46.396C84.5109 46.82 84.7229 47.424 84.7229 48.208V52H83.8349V51.064C83.2909 51.776 82.5429 52.132 81.5909 52.132ZM81.7709 51.4C82.3469 51.4 82.8349 51.244 83.2349 50.932C83.6429 50.612 83.8469 50.208 83.8469 49.72V49.12C83.2389 48.944 82.6309 48.856 82.0229 48.856C81.4469 48.856 80.9989 48.972 80.6789 49.204C80.3669 49.436 80.2109 49.748 80.2109 50.14V50.164C80.2109 50.54 80.3589 50.84 80.6549 51.064C80.9589 51.288 81.3309 51.4 81.7709 51.4Z" fill="black"/>
<path d="M88.7095 52.108C88.1735 52.108 87.7455 51.968 87.4255 51.688C87.1135 51.4 86.9575 50.956 86.9575 50.356V46.612H86.0935V45.796H86.9575V43.924H87.8815V45.796H89.8495V46.612H87.8815V50.236C87.8815 50.924 88.2295 51.268 88.9255 51.268C89.2295 51.268 89.5295 51.196 89.8255 51.052V51.844C89.4895 52.02 89.1175 52.108 88.7095 52.108Z" fill="black"/>
<path d="M94.0213 52.144C93.1493 52.144 92.4133 51.844 91.8133 51.244C91.2213 50.636 90.9253 49.86 90.9253 48.916V48.892C90.9253 47.988 91.2093 47.224 91.7773 46.6C92.3453 45.976 93.0533 45.664 93.9013 45.664C94.7893 45.664 95.4933 45.976 96.0133 46.6C96.5333 47.224 96.7933 48.004 96.7933 48.94C96.7933 49.068 96.7893 49.168 96.7813 49.24H91.8613C91.9253 49.896 92.1613 50.412 92.5693 50.788C92.9853 51.156 93.4773 51.34 94.0453 51.34C94.7893 51.34 95.4413 51.048 96.0013 50.464L96.5773 50.98C95.8813 51.756 95.0293 52.144 94.0213 52.144ZM91.8613 48.556H95.8573C95.8093 47.948 95.6133 47.444 95.2693 47.044C94.9253 46.644 94.4613 46.444 93.8773 46.444C93.3413 46.444 92.8853 46.644 92.5093 47.044C92.1413 47.444 91.9253 47.948 91.8613 48.556Z" fill="black"/>
<path d="M101.015 52.132C100.223 52.132 99.5309 51.84 98.9389 51.256C98.3469 50.672 98.0509 49.892 98.0509 48.916V48.892C98.0509 47.924 98.3469 47.144 98.9389 46.552C99.5309 45.96 100.223 45.664 101.015 45.664C101.991 45.664 102.783 46.104 103.391 46.984V43.24H104.315V52H103.391V50.752C102.767 51.672 101.975 52.132 101.015 52.132ZM101.183 51.304C101.783 51.304 102.307 51.08 102.755 50.632C103.203 50.176 103.427 49.6 103.427 48.904V48.88C103.427 48.192 103.203 47.624 102.755 47.176C102.307 46.72 101.783 46.492 101.183 46.492C100.559 46.492 100.039 46.708 99.6229 47.14C99.2069 47.572 98.9989 48.152 98.9989 48.88V48.904C98.9989 49.616 99.2109 50.196 99.6349 50.644C100.059 51.084 100.575 51.304 101.183 51.304Z" fill="black"/>
<path d="M110.001 44.44V43.42H111.057V44.44H110.001ZM110.061 52V45.796H110.985V52H110.061Z" fill="black"/>
<path d="M113.13 52V45.796H114.054V46.876C114.542 46.068 115.25 45.664 116.178 45.664C116.914 45.664 117.494 45.892 117.918 46.348C118.342 46.796 118.554 47.396 118.554 48.148V52H117.63V48.376C117.63 47.792 117.478 47.336 117.174 47.008C116.878 46.672 116.458 46.504 115.914 46.504C115.378 46.504 114.934 46.684 114.582 47.044C114.23 47.404 114.054 47.872 114.054 48.448V52H113.13Z" fill="black"/>
<path d="M127.17 52.06L123.558 43.6H124.614L127.602 50.836L130.602 43.6H131.622L128.01 52.06H127.17Z" fill="black"/>
<path d="M132.911 44.44V43.42H133.967V44.44H132.911ZM132.971 52V45.796H133.895V52H132.971Z" fill="black"/>
<path d="M138.752 52.144C137.88 52.144 137.144 51.844 136.544 51.244C135.952 50.636 135.656 49.86 135.656 48.916V48.892C135.656 47.988 135.94 47.224 136.508 46.6C137.076 45.976 137.784 45.664 138.632 45.664C139.52 45.664 140.224 45.976 140.744 46.6C141.264 47.224 141.524 48.004 141.524 48.94C141.524 49.068 141.52 49.168 141.512 49.24H136.592C136.656 49.896 136.892 50.412 137.3 50.788C137.716 51.156 138.208 51.34 138.776 51.34C139.52 51.34 140.172 51.048 140.732 50.464L141.308 50.98C140.612 51.756 139.76 52.144 138.752 52.144ZM136.592 48.556H140.588C140.54 47.948 140.344 47.444 140 47.044C139.656 46.644 139.192 46.444 138.608 46.444C138.072 46.444 137.616 46.644 137.24 47.044C136.872 47.444 136.656 47.948 136.592 48.556Z" fill="black"/>
<path d="M143.141 52V45.796H144.065V46.876C144.553 46.068 145.261 45.664 146.189 45.664C146.925 45.664 147.505 45.892 147.929 46.348C148.353 46.796 148.565 47.396 148.565 48.148V52H147.641V48.376C147.641 47.792 147.489 47.336 147.185 47.008C146.889 46.672 146.469 46.504 145.925 46.504C145.389 46.504 144.945 46.684 144.593 47.044C144.241 47.404 144.065 47.872 144.065 48.448V52H143.141Z" fill="black"/>
<path d="M150.536 52V45.796H151.46V46.876C151.948 46.068 152.656 45.664 153.584 45.664C154.32 45.664 154.9 45.892 155.324 46.348C155.748 46.796 155.96 47.396 155.96 48.148V52H155.036V48.376C155.036 47.792 154.884 47.336 154.58 47.008C154.284 46.672 153.864 46.504 153.32 46.504C152.784 46.504 152.34 46.684 151.988 47.044C151.636 47.404 151.46 47.872 151.46 48.448V52H150.536Z" fill="black"/>
<path d="M159.778 52.132C159.154 52.132 158.61 51.96 158.146 51.616C157.69 51.272 157.462 50.8 157.462 50.2V50.176C157.462 49.536 157.702 49.044 158.182 48.7C158.662 48.348 159.306 48.172 160.114 48.172C160.762 48.172 161.398 48.26 162.022 48.436V48.22C162.022 47.668 161.862 47.248 161.542 46.96C161.222 46.672 160.766 46.528 160.174 46.528C159.582 46.528 158.954 46.68 158.29 46.984L158.014 46.228C158.766 45.884 159.518 45.712 160.27 45.712C161.15 45.712 161.818 45.94 162.274 46.396C162.698 46.82 162.91 47.424 162.91 48.208V52H162.022V51.064C161.478 51.776 160.73 52.132 159.778 52.132ZM159.958 51.4C160.534 51.4 161.022 51.244 161.422 50.932C161.83 50.612 162.034 50.208 162.034 49.72V49.12C161.426 48.944 160.818 48.856 160.21 48.856C159.634 48.856 159.186 48.972 158.866 49.204C158.554 49.436 158.398 49.748 158.398 50.14V50.164C158.398 50.54 158.546 50.84 158.842 51.064C159.146 51.288 159.518 51.4 159.958 51.4Z" fill="black"/>
<path d="M164.544 53.464L164.4 53.044C164.984 52.836 165.252 52.488 165.204 52H164.772V50.74H165.876V51.82C165.876 52.3 165.768 52.668 165.552 52.924C165.344 53.18 165.008 53.36 164.544 53.464Z" fill="black"/>
<path d="M170.855 52L174.683 43.54H175.571L179.399 52H178.379L177.395 49.78H172.823L171.827 52H170.855ZM173.195 48.928H177.023L175.115 44.644L173.195 48.928Z" fill="black"/>
<path d="M183.062 52.132C182.326 52.132 181.746 51.908 181.322 51.46C180.898 51.004 180.686 50.4 180.686 49.648V45.796H181.61V49.42C181.61 50.004 181.758 50.464 182.054 50.8C182.358 51.128 182.782 51.292 183.326 51.292C183.862 51.292 184.306 51.112 184.658 50.752C185.01 50.392 185.186 49.924 185.186 49.348V45.796H186.098V52H185.186V50.92C184.682 51.728 183.974 52.132 183.062 52.132Z" fill="black"/>
<path d="M190.229 52.12C189.781 52.12 189.325 52.04 188.861 51.88C188.405 51.712 188.005 51.488 187.661 51.208L188.129 50.548C188.833 51.076 189.549 51.34 190.277 51.34C190.653 51.34 190.961 51.252 191.201 51.076C191.441 50.892 191.561 50.652 191.561 50.356V50.332C191.561 50.052 191.429 49.836 191.165 49.684C190.909 49.532 190.524 49.384 190.012 49.24C189.7 49.152 189.453 49.072 189.269 49C189.085 48.928 188.877 48.828 188.645 48.7C188.413 48.564 188.241 48.396 188.129 48.196C188.017 47.996 187.961 47.76 187.961 47.488V47.464C187.961 46.936 188.157 46.508 188.549 46.18C188.949 45.852 189.457 45.688 190.073 45.688C190.873 45.688 191.617 45.916 192.305 46.372L191.885 47.068C191.269 46.668 190.657 46.468 190.049 46.468C189.689 46.468 189.397 46.552 189.173 46.72C188.957 46.888 188.849 47.104 188.849 47.368V47.392C188.849 47.504 188.881 47.608 188.945 47.704C189.009 47.8 189.081 47.88 189.161 47.944C189.241 48.008 189.365 48.076 189.533 48.148C189.709 48.22 189.848 48.272 189.952 48.304C190.056 48.336 190.221 48.388 190.445 48.46C190.677 48.532 190.869 48.596 191.021 48.652C191.181 48.708 191.357 48.788 191.549 48.892C191.749 48.988 191.905 49.096 192.017 49.216C192.137 49.328 192.236 49.472 192.316 49.648C192.396 49.824 192.437 50.02 192.437 50.236V50.26C192.437 50.836 192.228 51.292 191.812 51.628C191.396 51.956 190.869 52.12 190.229 52.12Z" fill="black"/>
<path d="M196.112 52.108C195.576 52.108 195.148 51.968 194.828 51.688C194.516 51.4 194.36 50.956 194.36 50.356V46.612H193.496V45.796H194.36V43.924H195.284V45.796H197.252V46.612H195.284V50.236C195.284 50.924 195.632 51.268 196.328 51.268C196.632 51.268 196.932 51.196 197.228 51.052V51.844C196.892 52.02 196.52 52.108 196.112 52.108Z" fill="black"/>
<path d="M198.887 52V45.796H199.811V47.416C200.051 46.88 200.391 46.452 200.831 46.132C201.271 45.812 201.775 45.664 202.343 45.688V46.684H202.271C201.559 46.684 200.971 46.932 200.507 47.428C200.043 47.924 199.811 48.624 199.811 49.528V52H198.887Z" fill="black"/>
<path d="M203.775 44.44V43.42H204.831V44.44H203.775ZM203.835 52V45.796H204.759V52H203.835Z" fill="black"/>
<path d="M208.751 52.132C208.127 52.132 207.583 51.96 207.119 51.616C206.663 51.272 206.435 50.8 206.435 50.2V50.176C206.435 49.536 206.675 49.044 207.155 48.7C207.635 48.348 208.279 48.172 209.087 48.172C209.735 48.172 210.371 48.26 210.995 48.436V48.22C210.995 47.668 210.835 47.248 210.515 46.96C210.195 46.672 209.739 46.528 209.147 46.528C208.555 46.528 207.927 46.68 207.263 46.984L206.987 46.228C207.739 45.884 208.491 45.712 209.243 45.712C210.123 45.712 210.791 45.94 211.247 46.396C211.671 46.82 211.883 47.424 211.883 48.208V52H210.995V51.064C210.451 51.776 209.703 52.132 208.751 52.132ZM208.931 51.4C209.507 51.4 209.995 51.244 210.395 50.932C210.803 50.612 211.007 50.208 211.007 49.72V49.12C210.399 48.944 209.791 48.856 209.183 48.856C208.607 48.856 208.159 48.972 207.839 49.204C207.527 49.436 207.371 49.748 207.371 50.14V50.164C207.371 50.54 207.519 50.84 207.815 51.064C208.119 51.288 208.491 51.4 208.931 51.4Z" fill="black"/>
</svg>
