<svg width="320" height="53" viewBox="0 0 320 53" fill="none" xmlns="http://www.w3.org/2000/svg">
<path d="M10.6496 31.2004H5.43971C5.36468 31.2028 5.29011 31.1874 5.22194 31.1554C5.15377 31.1234 5.09386 31.0756 5.04696 31.0159C5.00006 30.9562 4.96747 30.8862 4.95176 30.8115C4.93605 30.7367 4.93767 30.6593 4.95647 30.5853L9.75864 7.61207C9.77745 7.53806 9.77906 7.46061 9.76335 7.38586C9.74765 7.31111 9.71505 7.24111 9.66815 7.18141C9.62126 7.12172 9.56135 7.07397 9.49317 7.04196C9.425 7.00995 9.35044 6.99455 9.2754 6.99699H1.49831C1.42203 7.00193 1.34569 6.98838 1.27556 6.95745C1.20542 6.92652 1.14349 6.87909 1.09486 6.81906C1.04622 6.75903 1.01226 6.6881 0.995762 6.61211C0.979268 6.53612 0.980711 6.45723 0.999973 6.38191L1.87584 2.19937C1.90291 2.08552 1.96674 1.98422 2.05711 1.91172C2.14748 1.83922 2.25913 1.79973 2.37418 1.79957H24.6484C24.7234 1.79596 24.7983 1.80968 24.8675 1.83972C24.9366 1.86975 24.9981 1.91531 25.0475 1.97299C25.0969 2.03067 25.1328 2.09898 25.1526 2.1728C25.1724 2.24662 25.1756 2.32404 25.1618 2.39927L24.2557 6.59719C24.2344 6.71114 24.1742 6.81375 24.0858 6.8869C23.9974 6.96005 23.8864 6.99904 23.7725 6.99699H16.4787C16.3655 6.99786 16.256 7.03792 16.1682 7.11058C16.0803 7.18325 16.0194 7.28418 15.9954 7.39679L11.1479 30.8006C11.1209 30.9144 11.057 31.0157 10.9667 31.0882C10.8763 31.1607 10.7646 31.2002 10.6496 31.2004Z" fill="#231F20"/>
<path d="M31.8063 18.6835L29.2391 30.8006C29.2178 30.9145 29.1576 31.0171 29.0692 31.0903C28.9807 31.1634 28.8698 31.2024 28.7559 31.2004H23.6517C23.5776 31.1998 23.5046 31.1824 23.4379 31.1495C23.3712 31.1165 23.3126 31.0689 23.2663 31.0099C23.22 30.951 23.1872 30.8823 23.1703 30.8089C23.1534 30.7354 23.1527 30.659 23.1685 30.5853L29.073 2.19937C29.0947 2.08273 29.1571 1.97801 29.2487 1.90454C29.3403 1.83106 29.4549 1.79378 29.5713 1.79957H34.6906C34.7645 1.79831 34.8376 1.81378 34.9049 1.84483C34.9721 1.87589 35.0317 1.92178 35.0794 1.97916C35.1271 2.03655 35.1616 2.10401 35.1806 2.17666C35.1995 2.24932 35.2024 2.32535 35.189 2.39927L33.1352 12.2405C33.1221 12.3152 33.125 12.3919 33.1439 12.4653C33.1628 12.5387 33.1971 12.607 33.2445 12.6656C33.292 12.7241 33.3513 12.7714 33.4185 12.8042C33.4857 12.837 33.5591 12.8546 33.6336 12.8556H44.0836C44.1975 12.8577 44.3084 12.8187 44.3968 12.7455C44.4853 12.6724 44.5454 12.5698 44.5668 12.4558L46.6961 2.19937C46.7206 2.08416 46.7837 1.98124 46.8747 1.90829C46.9656 1.83533 47.0786 1.79689 47.1944 1.79957H52.3439C52.4177 1.79831 52.4909 1.81378 52.5581 1.84483C52.6253 1.87589 52.6849 1.92178 52.7326 1.97916C52.7803 2.03655 52.8149 2.10401 52.8338 2.17666C52.8528 2.24932 52.8557 2.32535 52.8422 2.39927L46.8169 30.8006C46.7955 30.9145 46.7353 31.0171 46.6469 31.0903C46.5585 31.1634 46.4475 31.2024 46.3336 31.2004H41.2596C41.1843 31.2021 41.1095 31.1864 41.0409 31.1545C40.9724 31.1226 40.9118 31.0752 40.8639 31.016C40.8159 30.9568 40.7817 30.8872 40.764 30.8126C40.7462 30.738 40.7453 30.6603 40.7613 30.5853L43.2832 18.8988C43.2963 18.8241 43.2934 18.7474 43.2745 18.674C43.2556 18.6006 43.2213 18.5323 43.1739 18.4738C43.1265 18.4152 43.0671 18.3679 42.9999 18.3351C42.9327 18.3023 42.8594 18.2847 42.7849 18.2837H32.2896C32.1764 18.2846 32.0669 18.3246 31.9791 18.3973C31.8912 18.47 31.8303 18.5709 31.8063 18.6835Z" fill="#231F20"/>
<path d="M78.6501 3.55255C81.5495 5.76683 83.1804 9.54957 83.1804 14.178C83.1804 24.0654 76.1131 32 67.3695 32C64.2051 32.0484 61.1253 30.9594 58.6713 28.9246C57.3118 27.6652 56.2446 26.1136 55.5472 24.3821C54.8498 22.6507 54.5397 20.7828 54.6393 18.9142C54.5606 14.2142 56.2147 9.6549 59.2753 6.13588C60.7069 4.48605 62.4731 3.17237 64.452 2.28564C66.431 1.3989 68.5754 0.960237 70.7371 0.999967C73.5762 0.958824 76.3521 1.85429 78.6501 3.55255ZM64.0171 9.14977C61.8427 12.0013 60.6536 15.5039 60.6344 19.1141C60.6344 23.8348 63.3224 26.9256 67.3544 26.9256C72.5945 26.9256 77.0947 20.7748 77.0947 13.7014C77.0947 8.88836 74.5879 5.84372 70.6012 5.84372C69.3285 5.84536 68.0731 6.14425 66.9317 6.7174C65.7903 7.29055 64.7931 8.12268 64.0171 9.14977Z" fill="#231F20"/>
<path d="M101.74 22.2663L112.114 2.06098C112.159 1.97911 112.225 1.91136 112.305 1.86523C112.385 1.8191 112.475 1.79637 112.567 1.79957H120.118C120.191 1.79775 120.264 1.813 120.331 1.84416C120.398 1.87531 120.457 1.92155 120.503 1.97936C120.55 2.03718 120.583 2.10504 120.6 2.1778C120.617 2.25056 120.617 2.3263 120.601 2.39927L114.591 30.8006C114.567 30.9132 114.506 31.0141 114.418 31.0868C114.33 31.1594 114.221 31.1995 114.108 31.2004H109.109C109.034 31.2028 108.96 31.1874 108.891 31.1554C108.823 31.1234 108.763 31.0756 108.716 31.0159C108.669 30.9562 108.637 30.8862 108.621 30.8115C108.605 30.7367 108.607 30.6593 108.626 30.5853L112.552 11.8407C112.552 11.7945 112.536 11.7497 112.508 11.714C112.479 11.6783 112.439 11.6538 112.394 11.6447C112.35 11.6357 112.304 11.6426 112.264 11.6643C112.224 11.686 112.192 11.7212 112.175 11.7639L102.314 30.9851C102.27 31.0687 102.205 31.1386 102.125 31.1874C102.045 31.2361 101.954 31.2619 101.861 31.2619H97.8587C97.7364 31.2628 97.618 31.2179 97.5261 31.1356C97.4342 31.0534 97.3752 30.9396 97.3604 30.8159L95.2462 11.6101C95.2462 11.5571 95.2256 11.5062 95.1887 11.4687C95.1519 11.4312 95.102 11.4102 95.0499 11.4102C94.9979 11.4102 94.9479 11.4312 94.9111 11.4687C94.8743 11.5062 94.8536 11.5571 94.8536 11.6101L90.8216 30.8006C90.7976 30.9132 90.7367 31.0141 90.6489 31.0868C90.561 31.1594 90.4515 31.1995 90.3384 31.2004H85.2946C85.2196 31.2028 85.145 31.1874 85.0768 31.1554C85.0086 31.1234 84.9487 31.0756 84.9018 31.0159C84.8549 30.9562 84.8223 30.8862 84.8066 30.8115C84.7909 30.7367 84.7925 30.6593 84.8113 30.5853L90.7461 2.19937C90.7645 2.08399 90.8239 1.97952 90.913 1.90581C91.0021 1.8321 91.1147 1.79429 91.2293 1.79957H98.6138C98.6785 1.79102 98.7442 1.7959 98.807 1.81391C98.8698 1.83192 98.9283 1.86268 98.9791 1.90435C99.0299 1.94601 99.0719 1.99772 99.1026 2.05635C99.1332 2.11498 99.1519 2.17933 99.1574 2.2455L101.423 22.2356C101.438 22.2629 101.46 22.2861 101.486 22.3031C101.513 22.3202 101.542 22.3306 101.573 22.3336C101.604 22.3366 101.636 22.3321 101.665 22.3204C101.693 22.3087 101.719 22.2902 101.74 22.2663Z" fill="#231F20"/>
<path d="M128.167 24.8497L124.905 30.8928C124.853 30.9849 124.778 31.0616 124.688 31.1155C124.598 31.1694 124.496 31.1987 124.391 31.2004H119.635C119.534 31.1988 119.436 31.1711 119.349 31.1199C119.262 31.0688 119.189 30.9958 119.138 30.9079C119.086 30.8201 119.058 30.7203 119.055 30.6181C119.052 30.5159 119.075 30.4146 119.121 30.3239L135.128 2.09173C135.18 2.00372 135.253 1.93066 135.34 1.87951C135.427 1.82836 135.526 1.80084 135.627 1.79957H140.746C140.881 1.80017 141.011 1.84782 141.116 1.93458C141.22 2.02133 141.292 2.14193 141.32 2.27626L146.394 30.5084C146.407 30.5932 146.402 30.6799 146.379 30.7626C146.356 30.8453 146.316 30.922 146.262 30.9876C146.207 31.0532 146.14 31.1062 146.064 31.1429C145.987 31.1796 145.904 31.1992 145.82 31.2004H140.867C140.728 31.1984 140.594 31.1464 140.489 31.0535C140.384 30.9606 140.314 30.8329 140.293 30.6929L139.478 25.0496C139.459 24.9083 139.391 24.7787 139.285 24.6852C139.179 24.5918 139.044 24.5409 138.904 24.5421H128.665C128.562 24.5417 128.461 24.5703 128.373 24.6245C128.286 24.6788 128.214 24.7567 128.167 24.8497ZM136.427 9.70334L131.232 19.2986C131.182 19.3875 131.155 19.4884 131.155 19.5911C131.155 19.6938 131.182 19.7946 131.233 19.8835C131.283 19.9724 131.356 20.0461 131.443 20.0973C131.531 20.1485 131.63 20.1753 131.731 20.1751H138.088C138.171 20.1736 138.253 20.1543 138.328 20.1186C138.403 20.0828 138.47 20.0313 138.524 19.9674C138.578 19.9036 138.618 19.8288 138.642 19.748C138.666 19.6672 138.673 19.5822 138.662 19.4985L137.152 9.85711C137.13 9.78353 137.088 9.71737 137.033 9.66553C136.977 9.61369 136.908 9.57807 136.834 9.56236C136.76 9.54666 136.683 9.55146 136.612 9.57625C136.54 9.60105 136.476 9.64493 136.427 9.70334Z" fill="#231F20"/>
<path d="M168.864 10.5645C168.658 10.5609 168.461 10.478 168.313 10.3325C168.164 10.1871 168.075 9.98972 168.064 9.78022C168.086 9.29942 168.013 8.81897 167.85 8.36731C167.687 7.91565 167.436 7.50197 167.113 7.15076C166.588 6.66396 165.973 6.28823 165.304 6.04538C164.635 5.80252 163.926 5.69739 163.217 5.73608C160.317 5.73608 158.278 7.27378 158.278 9.3958C158.278 10.9335 159.23 11.7331 162.175 12.7941C167.369 14.6394 169.197 15.4697 170.359 16.4846C171.108 17.0987 171.709 17.8798 172.115 18.7676C172.521 19.6553 172.721 20.6261 172.7 21.6051C172.663 23.1552 172.276 24.6758 171.569 26.049C170.862 27.4223 169.854 28.6114 168.623 29.5243C166.031 31.2521 162.975 32.1172 159.879 32C152.902 32 148.84 28.6017 148.84 22.866C148.811 22.4309 148.811 21.9942 148.84 21.559C148.862 21.3618 148.954 21.1796 149.099 21.0466C149.243 20.9135 149.431 20.8387 149.625 20.8363H154.156C154.268 20.8379 154.379 20.8632 154.482 20.9106C154.584 20.958 154.676 21.0264 154.751 21.1116C154.826 21.1969 154.883 21.297 154.918 21.4057C154.954 21.5145 154.967 21.6295 154.956 21.7435C154.956 21.9742 154.956 22.0664 154.956 22.2048C154.956 24.9419 157.327 26.8179 160.619 26.8179C163.639 26.8179 165.905 25.0957 165.905 22.8045C165.905 21.3898 165.21 20.4672 163.564 19.7291C163.005 19.4523 162.175 19.1448 158.928 18.0069C156.918 17.4477 155.055 16.4391 153.476 15.0545C152.339 13.7997 151.718 12.1487 151.74 10.4414C151.739 9.14814 152.007 7.86937 152.528 6.68974C153.049 5.51011 153.809 4.45652 154.76 3.59868C157.298 1.64657 160.456 0.720784 163.624 0.999967C170.374 0.999967 174.195 3.95235 174.195 9.28816V9.76485C174.195 9.87116 174.174 9.97641 174.134 10.0744C174.093 10.1725 174.034 10.2613 173.96 10.3358C173.885 10.4102 173.797 10.4688 173.7 10.5081C173.603 10.5473 173.499 10.5665 173.395 10.5645H168.864Z" fill="#231F20"/>
<path d="M189.039 2.53767C189.094 2.30995 189.221 2.10735 189.402 1.96236C189.583 1.81736 189.806 1.73837 190.036 1.73806H199.429C204.156 1.73806 206.617 2.52229 208.746 4.69044C209.834 5.91018 210.672 7.33735 211.214 8.88936C211.756 10.4414 211.99 12.0874 211.903 13.7321C211.955 16.3343 211.456 18.9175 210.44 21.3056C209.423 23.6938 207.914 25.8309 206.013 27.5714C202.867 30.0976 198.931 31.381 194.929 31.185H184.358C184.207 31.1861 184.057 31.1526 183.92 31.0869C183.783 31.0212 183.662 30.9251 183.567 30.8055C183.471 30.686 183.403 30.5461 183.367 30.3962C183.332 30.2463 183.33 30.0902 183.361 29.9395L189.039 2.53767ZM195.08 25.7569C198.674 25.7569 200.803 24.9266 202.631 22.8968C204.652 20.3695 205.751 17.207 205.741 13.9474C205.813 12.8995 205.669 11.8479 205.318 10.8601C204.966 9.87237 204.416 8.97028 203.703 8.21177C202.267 7.13904 200.49 6.65097 198.719 6.84322H195.171C194.94 6.84218 194.715 6.92288 194.536 7.07154C194.357 7.2202 194.234 7.42757 194.189 7.6582L190.67 24.5729C190.639 24.7216 190.64 24.8757 190.675 25.0238C190.71 25.1718 190.777 25.31 190.871 25.4282C190.965 25.5463 191.084 25.6413 191.219 25.7062C191.355 25.7711 191.503 25.8042 191.652 25.803L195.08 25.7569Z" fill="#231F20"/>
<path d="M219.166 24.8035L215.859 30.9543C215.817 31.035 215.754 31.1021 215.677 31.1483C215.599 31.1945 215.511 31.2178 215.421 31.2157H210.468C210.381 31.2182 210.294 31.1965 210.218 31.1529C210.142 31.1092 210.078 31.0453 210.035 30.968C209.992 30.8907 209.97 30.8028 209.971 30.7137C209.973 30.6246 209.999 30.5377 210.045 30.4623L226.143 2.0456C226.185 1.96904 226.246 1.90559 226.321 1.86219C226.395 1.8188 226.48 1.79713 226.566 1.79957H231.791C231.909 1.79757 232.023 1.83819 232.115 1.9142C232.206 1.99022 232.268 2.09671 232.289 2.21475L237.393 30.6007C237.404 30.6742 237.399 30.7492 237.379 30.8207C237.359 30.8922 237.325 30.9586 237.277 31.0153C237.23 31.0721 237.172 31.118 237.106 31.1499C237.04 31.1818 236.968 31.199 236.895 31.2004H231.776C231.657 31.1987 231.542 31.1548 231.451 31.0762C231.36 30.9977 231.298 30.8893 231.277 30.7698L230.537 24.9727C230.516 24.8532 230.455 24.7448 230.364 24.6662C230.273 24.5877 230.158 24.5438 230.039 24.5421H219.68C219.578 24.5287 219.475 24.5464 219.384 24.5929C219.292 24.6395 219.217 24.7128 219.166 24.8035ZM227.306 9.88786L222.141 19.4523C222.099 19.5298 222.078 19.617 222.079 19.7055C222.08 19.794 222.104 19.8807 222.148 19.9568C222.192 20.033 222.256 20.0961 222.331 20.1397C222.407 20.1834 222.492 20.2062 222.579 20.2058H229.163C229.236 20.2067 229.307 20.1915 229.373 20.1613C229.439 20.1312 229.498 20.0867 229.545 20.0311C229.593 19.9755 229.628 19.9101 229.648 19.8394C229.668 19.7686 229.673 19.6943 229.662 19.6215L228.227 10.0878C228.214 9.98305 228.17 9.88499 228.1 9.80722C228.03 9.72945 227.938 9.67584 227.836 9.65384C227.735 9.63185 227.629 9.64257 227.534 9.68452C227.439 9.72646 227.359 9.79754 227.306 9.88786Z" fill="#231F20"/>
<path d="M261.57 26.5719L260.664 30.8006C260.64 30.9132 260.579 31.0141 260.491 31.0868C260.404 31.1594 260.294 31.1995 260.181 31.2004H241.018C240.943 31.1993 240.87 31.1818 240.803 31.149C240.735 31.1161 240.676 31.0688 240.629 31.0103C240.581 30.9518 240.547 30.8834 240.528 30.8101C240.509 30.7367 240.506 30.66 240.519 30.5853L246.469 2.19937C246.488 2.08399 246.547 1.97952 246.636 1.90581C246.725 1.8321 246.838 1.79429 246.952 1.79957H252.087C252.159 1.80058 252.231 1.8177 252.296 1.84974C252.362 1.88178 252.419 1.92797 252.465 1.98509C252.511 2.0422 252.544 2.10885 252.563 2.18039C252.581 2.25193 252.583 2.32663 252.57 2.39927L247.798 25.3417C247.782 25.4155 247.783 25.4918 247.8 25.5653C247.817 25.6388 247.85 25.7075 247.896 25.7664C247.942 25.8253 248.001 25.873 248.067 25.9059C248.134 25.9389 248.207 25.9562 248.281 25.9568H261.087C261.161 25.9574 261.234 25.9748 261.301 26.0077C261.368 26.0407 261.426 26.0883 261.472 26.1472C261.519 26.2062 261.552 26.2749 261.568 26.3483C261.585 26.4218 261.586 26.4982 261.57 26.5719Z" fill="#231F20"/>
<path d="M270.284 2.16862C270.307 2.0642 270.365 1.97098 270.447 1.90402C270.529 1.83706 270.631 1.80026 270.737 1.79957H281.021C284.66 1.79957 285.687 1.92259 287.061 2.53766C288.254 3.09677 289.259 4.00194 289.949 5.13982C290.64 6.2777 290.985 7.5977 290.942 8.93449C291.002 10.4178 290.594 11.8816 289.779 13.1125C288.964 14.3435 287.784 15.2771 286.412 15.7772V16.1463C287.48 16.6632 288.376 17.4881 288.988 18.5187C289.6 19.5492 289.901 20.74 289.855 21.9434C289.862 23.6938 289.349 25.4054 288.385 26.8542C287.42 28.3029 286.048 29.4212 284.449 30.0625C282.186 31.0193 279.732 31.4095 277.291 31.2004H264.923C264.854 31.1994 264.787 31.1831 264.725 31.1527C264.663 31.1222 264.609 31.0782 264.565 31.0239C264.522 30.9697 264.491 30.9063 264.475 30.8385C264.458 30.7707 264.456 30.7 264.47 30.6314L270.284 2.16862ZM276.324 26.126C277.847 26.2759 279.385 26.1298 280.854 25.6954C281.724 25.4315 282.487 24.8899 283.031 24.1506C283.574 23.4113 283.87 22.5135 283.875 21.5897C283.882 20.8026 283.63 20.0356 283.16 19.4113C282.689 18.7869 282.026 18.3412 281.277 18.1453C280.178 17.8298 279.031 17.7256 277.895 17.8378H273.364C273.257 17.8392 273.153 17.8782 273.071 17.9482C272.988 18.0182 272.932 18.1149 272.911 18.2222L271.401 25.557C271.388 25.6269 271.39 25.6989 271.407 25.7679C271.424 25.8368 271.457 25.9009 271.502 25.9555C271.546 26.0101 271.603 26.0537 271.666 26.0832C271.73 26.1127 271.799 26.1273 271.869 26.126H276.324ZM278.574 13.8244C279.886 13.9864 281.217 13.8499 282.47 13.4246C282.995 13.2573 283.478 12.9743 283.883 12.5957C284.289 12.2171 284.607 11.7521 284.816 11.2339C285.026 10.7157 285.12 10.157 285.093 9.59744C285.066 9.03789 284.918 8.49129 284.66 7.99649C284.24 7.33053 283.596 6.84381 282.848 6.62794C281.848 6.4757 280.836 6.43445 279.828 6.50493H275.841C275.733 6.5021 275.628 6.53728 275.542 6.60453C275.457 6.67177 275.397 6.76695 275.373 6.87397L274.059 13.24C274.046 13.3094 274.048 13.3808 274.064 13.4494C274.08 13.5181 274.111 13.5823 274.154 13.6377C274.197 13.6931 274.251 13.7385 274.313 13.7707C274.375 13.8029 274.443 13.8212 274.512 13.8244H278.574Z" fill="#231F20"/>
<path d="M318.894 2.53766L306.511 20.0674C306.343 20.2993 306.229 20.5677 306.179 20.8517L304.095 30.7391C304.071 30.8517 304.01 30.9526 303.922 31.0253C303.835 31.0979 303.725 31.138 303.612 31.1389H298.342C298.267 31.1383 298.194 31.1209 298.128 31.088C298.061 31.055 298.002 31.0073 297.956 30.9484C297.91 30.8895 297.877 30.8208 297.86 30.7474C297.843 30.6739 297.843 30.5975 297.858 30.5238L299.897 20.7901C299.983 20.3785 299.946 19.9501 299.791 19.56L292.951 2.53766C292.917 2.46184 292.904 2.37871 292.91 2.29601C292.917 2.21331 292.945 2.13373 292.99 2.06468C293.035 1.99562 293.097 1.93933 293.169 1.90104C293.241 1.86276 293.322 1.84372 293.404 1.8457H298.991C299.092 1.84489 299.191 1.87534 299.274 1.93301C299.358 1.99067 299.422 2.07284 299.459 2.16862L303.672 13.3016C303.706 13.387 303.762 13.4614 303.835 13.5168C303.907 13.5722 303.993 13.6065 304.083 13.616C304.173 13.6255 304.264 13.6098 304.346 13.5706C304.428 13.5315 304.498 13.4704 304.548 13.3938L312.099 1.95334C312.147 1.88559 312.211 1.83066 312.284 1.7932C312.358 1.75574 312.439 1.73683 312.522 1.73806H318.471C318.566 1.72852 318.662 1.74777 318.746 1.7934C318.83 1.83902 318.899 1.90897 318.944 1.99446C318.99 2.07994 319.009 2.17712 319 2.27378C318.991 2.37044 318.954 2.46226 318.894 2.53766Z" fill="#231F20"/>
<path d="M244.856 52L247.112 43.6H249.86C251.228 43.6 252.128 43.876 252.74 44.488C253.184 44.932 253.4 45.508 253.4 46.204C253.4 48.292 251.708 49.588 249.224 49.588H247.844L247.196 52H244.856ZM248.324 47.776H249.2C250.352 47.776 251.012 47.26 251.012 46.468C251.012 46.24 250.928 46.036 250.772 45.88C250.544 45.652 250.208 45.556 249.776 45.556H248.912L248.324 47.776Z" fill="black"/>
<path d="M256.518 52L258.774 43.6H261.114L260.262 46.744H263.226L264.066 43.6H266.406L264.15 52H261.81L262.674 48.808H259.71L258.858 52H256.518Z" fill="black"/>
<path d="M273.977 52.156C271.589 52.156 269.969 50.524 269.969 48.388C269.969 45.832 272.057 43.444 274.973 43.444C277.361 43.444 278.98 45.076 278.98 47.212C278.98 49.768 276.893 52.156 273.977 52.156ZM274.181 50.068C275.657 50.068 276.604 48.64 276.604 47.392C276.604 46.324 275.956 45.532 274.768 45.532C273.304 45.532 272.345 46.96 272.345 48.208C272.345 49.276 272.993 50.068 274.181 50.068Z" fill="black"/>
<path d="M283.862 52L285.578 45.64H283.058L283.61 43.6H290.966L290.426 45.64H287.906L286.202 52H283.862Z" fill="black"/>
<path d="M297.958 52.156C295.57 52.156 293.95 50.524 293.95 48.388C293.95 45.832 296.038 43.444 298.954 43.444C301.342 43.444 302.962 45.076 302.962 47.212C302.962 49.768 300.874 52.156 297.958 52.156ZM298.162 50.068C299.638 50.068 300.586 48.64 300.586 47.392C300.586 46.324 299.938 45.532 298.75 45.532C297.286 45.532 296.326 46.96 296.326 48.208C296.326 49.276 296.974 50.068 298.162 50.068Z" fill="black"/>
</svg>
