<svg xmlns="http://www.w3.org/2000/svg" viewBox="0 0 210.58 20.16"><defs><style>.cls-1{fill:#fff;}</style></defs><title>THOMAS DALBY (WHITE)</title><g id="Layer_2" data-name="Layer 2"><g id="Layer_2-2" data-name="Layer 2"><path class="cls-1" d="M6.39,19.64H2.94a.32.32,0,0,1-.32-.4L5.8,4.3a.32.32,0,0,0-.32-.4H.33A.32.32,0,0,1,0,3.5L.58.78A.34.34,0,0,1,.91.52H15.66A.33.33,0,0,1,16,.91L15.4,3.64a.32.32,0,0,1-.32.26H10.25a.33.33,0,0,0-.32.26L6.72,19.38A.34.34,0,0,1,6.39,19.64Z"/><path class="cls-1" d="M20.4,11.5l-1.7,7.88a.32.32,0,0,1-.32.26H15a.33.33,0,0,1-.32-.4L18.59.78a.32.32,0,0,1,.33-.26h3.39a.33.33,0,0,1,.33.39l-1.36,6.4a.34.34,0,0,0,.33.4h6.92a.32.32,0,0,0,.32-.26L30.26.78a.33.33,0,0,1,.33-.26H34a.33.33,0,0,1,.33.39L30.34,19.38a.32.32,0,0,1-.32.26H26.66a.33.33,0,0,1-.33-.4L28,11.64a.34.34,0,0,0-.33-.4H20.72A.33.33,0,0,0,20.4,11.5Z"/><path class="cls-1" d="M51.42,1.66c1.92,1.44,3,3.9,3,6.91,0,6.43-4.68,11.59-10.47,11.59a8.91,8.91,0,0,1-5.76-2,8.2,8.2,0,0,1-2.67-6.51,12.22,12.22,0,0,1,3.07-8.31A9.89,9.89,0,0,1,46.18,0,8.71,8.71,0,0,1,51.42,1.66ZM41.73,5.3a10.66,10.66,0,0,0-2.24,6.48c0,3.07,1.78,5.08,4.45,5.08,3.47,0,6.45-4,6.45-8.6,0-3.13-1.66-5.11-4.3-5.11A5.51,5.51,0,0,0,41.73,5.3Z"/><path class="cls-1" d="M66.71,13.83,73.58.69a.33.33,0,0,1,.3-.17h5a.32.32,0,0,1,.32.39L75.22,19.38a.33.33,0,0,1-.32.26H71.59a.32.32,0,0,1-.32-.4l2.6-12.19A.13.13,0,0,0,73.62,7l-6.53,12.5a.34.34,0,0,1-.3.18H64.14a.33.33,0,0,1-.33-.29L62.41,6.9a.13.13,0,0,0-.26,0L59.48,19.38a.33.33,0,0,1-.32.26H55.82a.32.32,0,0,1-.32-.4L59.43.78a.31.31,0,0,1,.32-.26h4.89A.32.32,0,0,1,65,.81l1.5,13A.13.13,0,0,0,66.71,13.83Z"/><path class="cls-1" d="M84.21,15.51l-2.16,3.93a.4.4,0,0,1-.34.2H78.56a.39.39,0,0,1-.34-.57L88.82.71a.39.39,0,0,1,.33-.19h3.39a.39.39,0,0,1,.38.31l3.36,18.36a.39.39,0,0,1-.38.45H92.62a.39.39,0,0,1-.38-.33l-.54-3.67a.38.38,0,0,0-.38-.33H84.54A.37.37,0,0,0,84.21,15.51Zm5.47-9.85L86.24,11.9a.38.38,0,0,0,.33.57h4.21a.39.39,0,0,0,.38-.44l-1-6.27A.28.28,0,0,0,89.68,5.66Z"/><path class="cls-1" d="M111.16,6.22a.54.54,0,0,1-.53-.51A2.34,2.34,0,0,0,110,4a3.55,3.55,0,0,0-2.58-.92c-1.92,0-3.27,1-3.27,2.38,0,1,.63,1.52,2.58,2.21,3.44,1.2,4.65,1.74,5.42,2.4a4.16,4.16,0,0,1,1.55,3.33A6.57,6.57,0,0,1,111,18.55a9.9,9.9,0,0,1-5.79,1.61c-4.62,0-7.31-2.21-7.31-5.94a6.24,6.24,0,0,1,0-.85.53.53,0,0,1,.52-.47h3a.54.54,0,0,1,.53.59c0,.15,0,.21,0,.3,0,1.78,1.57,3,3.75,3,2,0,3.5-1.12,3.5-2.61,0-.92-.46-1.52-1.55-2-.37-.18-.92-.38-3.07-1.12a9.28,9.28,0,0,1-3.61-1.92,4.34,4.34,0,0,1-1.15-3,5.94,5.94,0,0,1,2-4.45A8.52,8.52,0,0,1,107.69,0c4.47,0,7,1.92,7,5.39V5.7a.52.52,0,0,1-.53.52Z"/><path class="cls-1" d="M124.52,1a.68.68,0,0,1,.66-.52h6.22c3.13,0,4.76.51,6.17,1.92a8.1,8.1,0,0,1,2.09,5.88,11.78,11.78,0,0,1-3.9,9,11,11,0,0,1-7.34,2.35h-7a.67.67,0,0,1-.66-.81Zm4,15.1c2.38,0,3.79-.54,5-1.86a9.17,9.17,0,0,0,2.06-5.82,4.9,4.9,0,0,0-1.35-3.73,4.73,4.73,0,0,0-3.3-.89h-2.35a.66.66,0,0,0-.65.53l-2.33,11a.66.66,0,0,0,.65.8Z"/><path class="cls-1" d="M144.47,15.48l-2.19,4a.32.32,0,0,1-.29.17h-3.28a.32.32,0,0,1-.28-.49L149.09.68a.31.31,0,0,1,.28-.16h3.46a.33.33,0,0,1,.33.27l3.38,18.46a.34.34,0,0,1-.33.39h-3.39a.34.34,0,0,1-.33-.28L152,15.59a.34.34,0,0,0-.33-.28h-6.86A.34.34,0,0,0,144.47,15.48Zm5.39-9.7L146.44,12a.33.33,0,0,0,.29.49h4.36a.33.33,0,0,0,.33-.38l-.95-6.2A.33.33,0,0,0,149.86,5.78Z"/><path class="cls-1" d="M172.55,16.63l-.6,2.75a.33.33,0,0,1-.32.26H158.94a.34.34,0,0,1-.33-.4L162.55.78a.31.31,0,0,1,.32-.26h3.4a.33.33,0,0,1,.32.39l-3.16,14.92a.33.33,0,0,0,.32.4h8.48A.33.33,0,0,1,172.55,16.63Z"/><path class="cls-1" d="M178.32.76a.31.31,0,0,1,.3-.24h6.81c2.41,0,3.09.08,4,.48A4.42,4.42,0,0,1,192,5.16a4.53,4.53,0,0,1-3,4.45l0,.24a4,4,0,0,1,2.28,3.77,5.65,5.65,0,0,1-3.58,5.28,10.14,10.14,0,0,1-4.74.74h-8.19a.31.31,0,0,1-.3-.37Zm4,15.58a8,8,0,0,0,3-.28,2.8,2.8,0,0,0,2-2.67,2.29,2.29,0,0,0-1.72-2.24,6.09,6.09,0,0,0-2.24-.2h-3a.31.31,0,0,0-.3.25l-1,4.77a.31.31,0,0,0,.31.37Zm1.49-8a5.91,5.91,0,0,0,2.58-.26,2.48,2.48,0,0,0,1.45-3.53,2.11,2.11,0,0,0-1.2-.89,9.24,9.24,0,0,0-2-.08H182a.31.31,0,0,0-.31.24l-.87,4.14a.32.32,0,0,0,.3.38Z"/><path class="cls-1" d="M210.51,1l-8.2,11.4a1.22,1.22,0,0,0-.22.51l-1.38,6.43a.33.33,0,0,1-.32.26H196.9a.33.33,0,0,1-.32-.4l1.35-6.33a1.37,1.37,0,0,0-.07-.8L193.33,1a.32.32,0,0,1,.3-.45h3.7a.33.33,0,0,1,.31.21L200.43,8a.33.33,0,0,0,.58.06l5-7.44a.34.34,0,0,1,.28-.14h3.94A.32.32,0,0,1,210.51,1Z"/></g></g></svg>