<svg width="416" height="76" viewBox="0 0 416 76" fill="none" xmlns="http://www.w3.org/2000/svg">
<path d="M10.6496 51.2004H5.43971C5.36468 51.2028 5.29011 51.1874 5.22194 51.1554C5.15377 51.1234 5.09386 51.0757 5.04696 51.016C5.00006 50.9563 4.96747 50.8863 4.95176 50.8115C4.93605 50.7368 4.93767 50.6593 4.95647 50.5853L9.75864 27.6121C9.77745 27.5381 9.77906 27.4606 9.76335 27.3859C9.74765 27.3111 9.71505 27.2411 9.66815 27.1814C9.62126 27.1218 9.56135 27.074 9.49317 27.042C9.425 27.01 9.35044 26.9946 9.2754 26.997H1.49831C1.42203 27.002 1.34569 26.9884 1.27556 26.9575C1.20542 26.9266 1.14349 26.8791 1.09486 26.8191C1.04622 26.7591 1.01226 26.6881 0.995762 26.6121C0.979268 26.5362 0.980711 26.4573 0.999973 26.3819L1.87584 22.1994C1.90291 22.0855 1.96674 21.9842 2.05711 21.9118C2.14748 21.8393 2.25913 21.7998 2.37418 21.7996H24.6484C24.7234 21.796 24.7983 21.8097 24.8675 21.8397C24.9366 21.8698 24.9981 21.9153 25.0475 21.973C25.0969 22.0307 25.1328 22.099 25.1526 22.1728C25.1724 22.2467 25.1756 22.3241 25.1618 22.3993L24.2557 26.5972C24.2344 26.7112 24.1742 26.8138 24.0858 26.8869C23.9974 26.9601 23.8864 26.9991 23.7725 26.997H16.4787C16.3655 26.9979 16.256 27.038 16.1682 27.1106C16.0803 27.1833 16.0194 27.2842 15.9954 27.3968L11.1479 50.8006C11.1209 50.9145 11.057 51.0158 10.9667 51.0882C10.8763 51.1607 10.7646 51.2002 10.6496 51.2004Z" fill="white"/>
<path d="M31.8063 38.6835L29.2391 50.8006C29.2178 50.9145 29.1576 51.0172 29.0692 51.0903C28.9807 51.1635 28.8698 51.2025 28.7559 51.2004H23.6517C23.5776 51.1998 23.5046 51.1824 23.4379 51.1495C23.3712 51.1166 23.3126 51.0689 23.2663 51.01C23.22 50.951 23.1872 50.8824 23.1703 50.8089C23.1534 50.7354 23.1527 50.6591 23.1685 50.5853L29.073 22.1994C29.0947 22.0828 29.1571 21.978 29.2487 21.9046C29.3403 21.8311 29.4549 21.7938 29.5713 21.7996H34.6906C34.7645 21.7983 34.8376 21.8138 34.9049 21.8449C34.9721 21.8759 35.0317 21.9218 35.0794 21.9792C35.1271 22.0366 35.1616 22.104 35.1806 22.1767C35.1995 22.2494 35.2024 22.3254 35.189 22.3993L33.1352 32.2406C33.1221 32.3153 33.125 32.392 33.1439 32.4653C33.1628 32.5387 33.1971 32.6071 33.2445 32.6656C33.292 32.7241 33.3513 32.7714 33.4185 32.8043C33.4857 32.8371 33.5591 32.8546 33.6336 32.8557H44.0836C44.1975 32.8577 44.3084 32.8187 44.3968 32.7456C44.4853 32.6724 44.5454 32.5698 44.5668 32.4559L46.6961 22.1994C46.7206 22.0842 46.7837 21.9813 46.8747 21.9083C46.9656 21.8354 47.0786 21.7969 47.1944 21.7996H52.3439C52.4177 21.7983 52.4909 21.8138 52.5581 21.8449C52.6253 21.8759 52.6849 21.9218 52.7326 21.9792C52.7803 22.0366 52.8149 22.104 52.8338 22.1767C52.8528 22.2494 52.8557 22.3254 52.8422 22.3993L46.8169 50.8006C46.7955 50.9145 46.7353 51.0172 46.6469 51.0903C46.5585 51.1635 46.4475 51.2025 46.3336 51.2004H41.2596C41.1843 51.2021 41.1095 51.1865 41.0409 51.1545C40.9724 51.1226 40.9118 51.0752 40.8639 51.016C40.8159 50.9568 40.7817 50.8873 40.764 50.8127C40.7462 50.7381 40.7453 50.6603 40.7613 50.5853L43.2832 38.8988C43.2963 38.8241 43.2934 38.7474 43.2745 38.674C43.2556 38.6006 43.2213 38.5323 43.1739 38.4738C43.1265 38.4153 43.0671 38.3679 42.9999 38.3351C42.9327 38.3023 42.8594 38.2848 42.7849 38.2837H32.2896C32.1764 38.2846 32.0669 38.3247 31.9791 38.3973C31.8912 38.47 31.8303 38.5709 31.8063 38.6835Z" fill="white"/>
<path d="M78.6501 23.5526C81.5495 25.7669 83.1804 29.5496 83.1804 34.1781C83.1804 44.0655 76.1131 52 67.3695 52C64.2051 52.0484 61.1253 50.9595 58.6713 48.9246C57.3118 47.6653 56.2446 46.1136 55.5472 44.3821C54.8498 42.6507 54.5397 40.7829 54.6393 38.9142C54.5606 34.2142 56.2147 29.6549 59.2753 26.1359C60.7069 24.4861 62.4731 23.1724 64.452 22.2857C66.431 21.3989 68.5754 20.9603 70.7371 21C73.5762 20.9589 76.3521 21.8543 78.6501 23.5526ZM64.0171 29.1498C61.8427 32.0013 60.6536 35.504 60.6344 39.1141C60.6344 43.8348 63.3224 46.9256 67.3544 46.9256C72.5945 46.9256 77.0947 40.7748 77.0947 33.7014C77.0947 28.8884 74.5879 25.8438 70.6012 25.8438C69.3285 25.8454 68.0731 26.1443 66.9317 26.7174C65.7903 27.2906 64.7931 28.1227 64.0171 29.1498Z" fill="white"/>
<path d="M101.74 42.2664L112.114 22.061C112.159 21.9791 112.225 21.9114 112.305 21.8653C112.385 21.8191 112.475 21.7964 112.567 21.7996H120.118C120.191 21.7978 120.264 21.813 120.331 21.8442C120.398 21.8753 120.457 21.9216 120.503 21.9794C120.55 22.0372 120.583 22.1051 120.6 22.1778C120.617 22.2506 120.617 22.3263 120.601 22.3993L114.591 50.8006C114.567 50.9132 114.506 51.0141 114.418 51.0868C114.33 51.1595 114.221 51.1995 114.108 51.2004H109.109C109.034 51.2028 108.96 51.1874 108.891 51.1554C108.823 51.1234 108.763 51.0757 108.716 51.016C108.669 50.9563 108.637 50.8863 108.621 50.8115C108.605 50.7368 108.607 50.6593 108.626 50.5853L112.552 31.8408C112.552 31.7946 112.536 31.7498 112.508 31.714C112.479 31.6783 112.439 31.6538 112.394 31.6448C112.35 31.6357 112.304 31.6426 112.264 31.6643C112.224 31.686 112.192 31.7212 112.175 31.7639L102.314 50.9851C102.27 51.0687 102.205 51.1386 102.125 51.1874C102.045 51.2362 101.954 51.2619 101.861 51.2619H97.8587C97.7364 51.2628 97.618 51.2179 97.5261 51.1357C97.4342 51.0534 97.3752 50.9396 97.3604 50.816L95.2462 31.6101C95.2462 31.5571 95.2256 31.5063 95.1887 31.4688C95.1519 31.4313 95.102 31.4102 95.0499 31.4102C94.9979 31.4102 94.9479 31.4313 94.9111 31.4688C94.8743 31.5063 94.8536 31.5571 94.8536 31.6101L90.8216 50.8006C90.7976 50.9132 90.7367 51.0141 90.6489 51.0868C90.561 51.1595 90.4515 51.1995 90.3384 51.2004H85.2946C85.2196 51.2028 85.145 51.1874 85.0768 51.1554C85.0086 51.1234 84.9487 51.0757 84.9018 51.016C84.8549 50.9563 84.8223 50.8863 84.8066 50.8115C84.7909 50.7368 84.7925 50.6593 84.8113 50.5853L90.7461 22.1994C90.7645 22.084 90.8239 21.9796 90.913 21.9058C91.0021 21.8321 91.1147 21.7943 91.2293 21.7996H98.6138C98.6785 21.7911 98.7442 21.7959 98.807 21.8139C98.8698 21.832 98.9283 21.8627 98.9791 21.9044C99.0299 21.946 99.0719 21.9978 99.1026 22.0564C99.1332 22.115 99.1519 22.1794 99.1574 22.2455L101.423 42.2356C101.438 42.263 101.46 42.2861 101.486 42.3032C101.513 42.3202 101.542 42.3307 101.573 42.3337C101.604 42.3367 101.636 42.3321 101.665 42.3204C101.693 42.3087 101.719 42.2902 101.74 42.2664Z" fill="white"/>
<path d="M128.167 44.8497L124.905 50.8929C124.853 50.9849 124.778 51.0617 124.688 51.1156C124.598 51.1695 124.496 51.1987 124.391 51.2004H119.635C119.534 51.1988 119.436 51.1711 119.349 51.12C119.262 51.0688 119.189 50.9958 119.138 50.908C119.086 50.8201 119.058 50.7204 119.055 50.6181C119.052 50.5159 119.075 50.4146 119.121 50.3239L135.128 22.0918C135.18 22.0038 135.253 21.9307 135.34 21.8795C135.427 21.8284 135.526 21.8009 135.627 21.7996H140.746C140.881 21.8002 141.011 21.8479 141.116 21.9346C141.22 22.0214 141.292 22.142 141.32 22.2763L146.394 50.5084C146.407 50.5933 146.402 50.68 146.379 50.7626C146.356 50.8453 146.316 50.9221 146.262 50.9877C146.207 51.0533 146.14 51.1062 146.064 51.1429C145.987 51.1796 145.904 51.1992 145.82 51.2004H140.867C140.728 51.1984 140.594 51.1464 140.489 51.0535C140.384 50.9607 140.314 50.8329 140.293 50.693L139.478 45.0496C139.459 44.9083 139.391 44.7787 139.285 44.6853C139.179 44.5918 139.044 44.5409 138.904 44.5422H128.665C128.562 44.5418 128.461 44.5703 128.373 44.6245C128.286 44.6788 128.214 44.7567 128.167 44.8497ZM136.427 29.7034L131.232 39.2986C131.182 39.3875 131.155 39.4884 131.155 39.5911C131.155 39.6938 131.182 39.7947 131.233 39.8835C131.283 39.9724 131.356 40.0462 131.443 40.0973C131.531 40.1485 131.63 40.1753 131.731 40.1751H138.088C138.171 40.1736 138.253 40.1544 138.328 40.1186C138.403 40.0828 138.47 40.0313 138.524 39.9675C138.578 39.9036 138.618 39.8288 138.642 39.748C138.666 39.6672 138.673 39.5822 138.662 39.4985L137.152 29.8571C137.13 29.7836 137.088 29.7174 137.033 29.6656C136.977 29.6137 136.908 29.5781 136.834 29.5624C136.76 29.5467 136.683 29.5515 136.612 29.5763C136.54 29.6011 136.476 29.645 136.427 29.7034Z" fill="white"/>
<path d="M168.864 30.5645C168.658 30.5609 168.461 30.4781 168.313 30.3326C168.164 30.1871 168.075 29.9898 168.064 29.7803C168.086 29.2995 168.013 28.819 167.85 28.3673C167.687 27.9157 167.436 27.502 167.113 27.1508C166.588 26.664 165.973 26.2883 165.304 26.0454C164.635 25.8026 163.926 25.6974 163.217 25.7361C160.317 25.7361 158.278 27.2738 158.278 29.3958C158.278 30.9335 159.23 31.7331 162.175 32.7941C167.369 34.6394 169.197 35.4697 170.359 36.4846C171.108 37.0988 171.709 37.8798 172.115 38.7676C172.521 39.6554 172.721 40.6262 172.7 41.6052C172.663 43.1552 172.276 44.6758 171.569 46.0491C170.862 47.4223 169.854 48.6114 168.623 49.5243C166.031 51.2521 162.975 52.1172 159.879 52C152.902 52 148.84 48.6017 148.84 42.8661C148.811 42.4309 148.811 41.9942 148.84 41.559C148.862 41.3619 148.954 41.1797 149.099 41.0466C149.243 40.9136 149.431 40.8388 149.625 40.8363H154.156C154.268 40.8379 154.379 40.8632 154.482 40.9106C154.584 40.958 154.676 41.0265 154.751 41.1117C154.826 41.1969 154.883 41.297 154.918 41.4058C154.954 41.5145 154.967 41.6295 154.956 41.7436C154.956 41.9742 154.956 42.0665 154.956 42.2049C154.956 44.942 157.327 46.818 160.619 46.818C163.639 46.818 165.905 45.0957 165.905 42.8046C165.905 41.3899 165.21 40.4673 163.564 39.7292C163.005 39.4524 162.175 39.1448 158.928 38.0069C156.918 37.4478 155.055 36.4392 153.476 35.0546C152.339 33.7997 151.718 32.1488 151.74 30.4415C151.739 29.1482 152.007 27.8694 152.528 26.6898C153.049 25.5101 153.809 24.4566 154.76 23.5987C157.298 21.6466 160.456 20.7208 163.624 21C170.374 21 174.195 23.9524 174.195 29.2882V29.7649C174.195 29.8712 174.174 29.9764 174.134 30.0745C174.093 30.1725 174.034 30.2613 173.96 30.3358C173.885 30.4102 173.797 30.4688 173.7 30.5081C173.603 30.5474 173.499 30.5665 173.395 30.5645H168.864Z" fill="white"/>
<path d="M189.039 22.5377C189.094 22.31 189.221 22.1074 189.402 21.9624C189.583 21.8174 189.806 21.7384 190.036 21.7381H199.429C204.156 21.7381 206.617 22.5223 208.746 24.6905C209.834 25.9102 210.672 27.3374 211.214 28.8894C211.756 30.4414 211.99 32.0874 211.903 33.7321C211.955 36.3343 211.456 38.9175 210.44 41.3056C209.423 43.6938 207.914 45.8309 206.013 47.5714C202.867 50.0977 198.931 51.381 194.929 51.185H184.358C184.207 51.1861 184.057 51.1526 183.92 51.0869C183.783 51.0213 183.662 50.9251 183.567 50.8056C183.471 50.686 183.403 50.5462 183.367 50.3963C183.332 50.2464 183.33 50.0903 183.361 49.9395L189.039 22.5377ZM195.08 45.7569C198.674 45.7569 200.803 44.9266 202.631 42.8968C204.652 40.3695 205.751 37.207 205.741 33.9474C205.813 32.8995 205.669 31.8479 205.318 30.8602C204.966 29.8724 204.416 28.9703 203.703 28.2118C202.267 27.1391 200.49 26.651 198.719 26.8433H195.171C194.94 26.8422 194.715 26.9229 194.536 27.0716C194.357 27.2202 194.234 27.4276 194.189 27.6582L190.67 44.5729C190.639 44.7217 190.64 44.8758 190.675 45.0238C190.71 45.1719 190.777 45.3101 190.871 45.4282C190.965 45.5463 191.084 45.6414 191.219 45.7063C191.355 45.7711 191.503 45.8042 191.652 45.8031L195.08 45.7569Z" fill="white"/>
<path d="M219.166 44.8036L215.859 50.9544C215.817 51.035 215.754 51.1022 215.677 51.1483C215.599 51.1945 215.511 51.2179 215.421 51.2158H210.468C210.381 51.2183 210.294 51.1965 210.218 51.1529C210.142 51.1093 210.078 51.0454 210.035 50.968C209.992 50.8907 209.97 50.8028 209.971 50.7137C209.973 50.6247 209.999 50.5378 210.045 50.4623L226.143 22.0456C226.185 21.9691 226.246 21.9056 226.321 21.8622C226.395 21.8188 226.48 21.7972 226.566 21.7996H231.791C231.909 21.7976 232.023 21.8382 232.115 21.9142C232.206 21.9903 232.268 22.0967 232.289 22.2148L237.393 50.6007C237.404 50.6742 237.399 50.7493 237.379 50.8208C237.359 50.8923 237.325 50.9586 237.277 51.0154C237.23 51.0721 237.172 51.118 237.106 51.1499C237.04 51.1818 236.968 51.199 236.895 51.2004H231.776C231.657 51.1987 231.542 51.1548 231.451 51.0763C231.36 50.9977 231.298 50.8894 231.277 50.7698L230.537 44.9727C230.516 44.8532 230.455 44.7448 230.364 44.6663C230.273 44.5877 230.158 44.5438 230.039 44.5422H219.68C219.578 44.5287 219.475 44.5464 219.384 44.593C219.292 44.6395 219.217 44.7129 219.166 44.8036ZM227.306 29.8879L222.141 39.4524C222.099 39.5298 222.078 39.6171 222.079 39.7056C222.08 39.7941 222.104 39.8807 222.148 39.9569C222.192 40.033 222.256 40.0961 222.331 40.1398C222.407 40.1834 222.492 40.2062 222.579 40.2059H229.163C229.236 40.2067 229.307 40.1915 229.373 40.1614C229.439 40.1312 229.498 40.0868 229.545 40.0312C229.593 39.9756 229.628 39.9101 229.648 39.8394C229.668 39.7687 229.673 39.6943 229.662 39.6215L228.227 30.0878C228.214 29.9831 228.17 29.885 228.1 29.8073C228.03 29.7295 227.938 29.6759 227.836 29.6539C227.735 29.6319 227.629 29.6426 227.534 29.6846C227.439 29.7265 227.359 29.7976 227.306 29.8879Z" fill="white"/>
<path d="M261.57 46.5719L260.664 50.8006C260.64 50.9132 260.579 51.0141 260.491 51.0868C260.404 51.1595 260.294 51.1995 260.181 51.2004H241.018C240.943 51.1994 240.87 51.1818 240.803 51.149C240.735 51.1162 240.676 51.0689 240.629 51.0103C240.581 50.9518 240.547 50.8835 240.528 50.8101C240.509 50.7367 240.506 50.66 240.519 50.5853L246.469 22.1994C246.488 22.084 246.547 21.9796 246.636 21.9058C246.725 21.8321 246.838 21.7943 246.952 21.7996H252.087C252.159 21.8006 252.231 21.8177 252.296 21.8498C252.362 21.8818 252.419 21.928 252.465 21.9851C252.511 22.0422 252.544 22.1089 252.563 22.1804C252.581 22.252 252.583 22.3267 252.57 22.3993L247.798 45.3418C247.782 45.4155 247.783 45.4919 247.8 45.5653C247.817 45.6388 247.85 45.7075 247.896 45.7664C247.942 45.8253 248.001 45.873 248.067 45.9059C248.134 45.9389 248.207 45.9563 248.281 45.9568H261.087C261.161 45.9574 261.234 45.9748 261.301 46.0077C261.368 46.0407 261.426 46.0884 261.472 46.1473C261.519 46.2062 261.552 46.2749 261.568 46.3483C261.585 46.4218 261.586 46.4982 261.57 46.5719Z" fill="white"/>
<path d="M270.284 22.1687C270.307 22.0642 270.365 21.971 270.447 21.9041C270.529 21.8371 270.631 21.8003 270.737 21.7996H281.021C284.66 21.7996 285.687 21.9226 287.061 22.5377C288.254 23.0968 289.259 24.002 289.949 25.1399C290.64 26.2777 290.985 27.5977 290.942 28.9345C291.002 30.4178 290.594 31.8817 289.779 33.1126C288.964 34.3435 287.784 35.2771 286.412 35.7773V36.1463C287.48 36.6633 288.376 37.4882 288.988 38.5187C289.6 39.5492 289.901 40.74 289.855 41.9435C289.862 43.6938 289.349 45.4055 288.385 46.8542C287.42 48.303 286.048 49.4212 284.449 50.0625C282.186 51.0193 279.732 51.4096 277.291 51.2004H264.923C264.854 51.1995 264.787 51.1832 264.725 51.1527C264.663 51.1222 264.609 51.0783 264.565 51.024C264.522 50.9697 264.491 50.9064 264.475 50.8385C264.458 50.7707 264.456 50.7 264.47 50.6314L270.284 22.1687ZM276.324 46.126C277.847 46.276 279.385 46.1298 280.854 45.6954C281.724 45.4315 282.487 44.8899 283.031 44.1506C283.574 43.4113 283.87 42.5135 283.875 41.5898C283.882 40.8026 283.63 40.0357 283.16 39.4113C282.689 38.7869 282.026 38.3412 281.277 38.1453C280.178 37.8299 279.031 37.7256 277.895 37.8378H273.364C273.257 37.8393 273.153 37.8782 273.071 37.9482C272.988 38.0182 272.932 38.115 272.911 38.2222L271.401 45.557C271.388 45.6269 271.39 45.6989 271.407 45.7679C271.424 45.8368 271.457 45.901 271.502 45.9555C271.546 46.0101 271.603 46.0537 271.666 46.0832C271.73 46.1127 271.799 46.1273 271.869 46.126H276.324ZM278.574 33.8244C279.886 33.9865 281.217 33.8499 282.47 33.4246C282.995 33.2574 283.478 32.9744 283.883 32.5957C284.289 32.2171 284.607 31.7522 284.816 31.234C285.026 30.7158 285.12 30.157 285.093 29.5975C285.066 29.0379 284.918 28.4913 284.66 27.9965C284.24 27.3306 283.596 26.8438 282.848 26.628C281.848 26.4757 280.836 26.4345 279.828 26.505H275.841C275.733 26.5021 275.628 26.5373 275.542 26.6046C275.457 26.6718 275.397 26.767 275.373 26.874L274.059 33.2401C274.046 33.3094 274.048 33.3809 274.064 33.4495C274.08 33.5181 274.111 33.5823 274.154 33.6377C274.197 33.6932 274.251 33.7385 274.313 33.7707C274.375 33.803 274.443 33.8213 274.512 33.8244H278.574Z" fill="white"/>
<path d="M318.894 22.5377L306.511 40.0675C306.343 40.2994 306.229 40.5677 306.179 40.8517L304.095 50.7391C304.071 50.8517 304.01 50.9526 303.922 51.0253C303.835 51.098 303.725 51.138 303.612 51.1389H298.342C298.267 51.1383 298.194 51.1209 298.128 51.088C298.061 51.055 298.002 51.0074 297.956 50.9485C297.91 50.8895 297.877 50.8208 297.86 50.7474C297.843 50.6739 297.843 50.5975 297.858 50.5238L299.897 40.7902C299.983 40.3786 299.946 39.9501 299.791 39.56L292.951 22.5377C292.917 22.4619 292.904 22.3787 292.91 22.296C292.917 22.2133 292.945 22.1338 292.99 22.0647C293.035 21.9957 293.097 21.9394 293.169 21.9011C293.241 21.8628 293.322 21.8438 293.404 21.8457H298.991C299.092 21.8449 299.191 21.8754 299.274 21.933C299.358 21.9907 299.422 22.0729 299.459 22.1687L303.672 33.3016C303.706 33.387 303.762 33.4615 303.835 33.5168C303.907 33.5722 303.993 33.6065 304.083 33.616C304.173 33.6255 304.264 33.6098 304.346 33.5707C304.428 33.5315 304.498 33.4704 304.548 33.3938L312.099 21.9534C312.147 21.8856 312.211 21.8307 312.284 21.7932C312.358 21.7558 312.439 21.7369 312.522 21.7381H318.471C318.566 21.7286 318.662 21.7478 318.746 21.7934C318.83 21.8391 318.899 21.909 318.944 21.9945C318.99 22.08 319.009 22.1772 319 22.2738C318.991 22.3705 318.954 22.4623 318.894 22.5377Z" fill="white"/>
<path d="M244.856 72L247.112 63.6H249.86C251.228 63.6 252.128 63.876 252.74 64.488C253.184 64.932 253.4 65.508 253.4 66.204C253.4 68.292 251.708 69.588 249.224 69.588H247.844L247.196 72H244.856ZM248.324 67.776H249.2C250.352 67.776 251.012 67.26 251.012 66.468C251.012 66.24 250.928 66.036 250.772 65.88C250.544 65.652 250.208 65.556 249.776 65.556H248.912L248.324 67.776Z" fill="white"/>
<path d="M256.518 72L258.774 63.6H261.114L260.262 66.744H263.226L264.066 63.6H266.406L264.15 72H261.81L262.674 68.808H259.71L258.858 72H256.518Z" fill="white"/>
<path d="M273.977 72.156C271.589 72.156 269.969 70.524 269.969 68.388C269.969 65.832 272.057 63.444 274.973 63.444C277.361 63.444 278.98 65.076 278.98 67.212C278.98 69.768 276.893 72.156 273.977 72.156ZM274.181 70.068C275.657 70.068 276.604 68.64 276.604 67.392C276.604 66.324 275.956 65.532 274.768 65.532C273.304 65.532 272.345 66.96 272.345 68.208C272.345 69.276 272.993 70.068 274.181 70.068Z" fill="white"/>
<path d="M283.862 72L285.578 65.64H283.058L283.61 63.6H290.966L290.426 65.64H287.906L286.202 72H283.862Z" fill="white"/>
<path d="M297.958 72.156C295.57 72.156 293.95 70.524 293.95 68.388C293.95 65.832 296.038 63.444 298.954 63.444C301.342 63.444 302.962 65.076 302.962 67.212C302.962 69.768 300.874 72.156 297.958 72.156ZM298.162 70.068C299.638 70.068 300.586 68.64 300.586 67.392C300.586 66.324 299.938 65.532 298.75 65.532C297.286 65.532 296.326 66.96 296.326 68.208C296.326 69.276 296.974 70.068 298.162 70.068Z" fill="white"/>
<path d="M7.02797 72.144C5.82797 72.144 4.82397 71.728 4.01597 70.896C3.21597 70.064 2.81597 69.04 2.81597 67.824V67.8C2.81597 66.592 3.21997 65.568 4.02797 64.728C4.83597 63.88 5.84797 63.456 7.06397 63.456C7.77597 63.456 8.38397 63.568 8.88797 63.792C9.39197 64.016 9.87597 64.348 10.34 64.788L9.69197 65.484C8.88397 64.716 8.00397 64.332 7.05197 64.332C6.12397 64.332 5.34797 64.664 4.72397 65.328C4.10797 65.992 3.79997 66.808 3.79997 67.776V67.8C3.79997 68.776 4.11197 69.6 4.73597 70.272C5.35997 70.936 6.13197 71.268 7.05197 71.268C7.59597 71.268 8.07597 71.168 8.49197 70.968C8.90797 70.768 9.33197 70.464 9.76397 70.056L10.388 70.668C9.90797 71.156 9.40797 71.524 8.88797 71.772C8.36797 72.02 7.74797 72.144 7.02797 72.144Z" fill="white"/>
<path d="M14.2182 72.132C13.4822 72.132 12.9022 71.908 12.4782 71.46C12.0542 71.004 11.8422 70.4 11.8422 69.648V65.796H12.7662V69.42C12.7662 70.004 12.9142 70.464 13.2102 70.8C13.5142 71.128 13.9382 71.292 14.4822 71.292C15.0182 71.292 15.4622 71.112 15.8142 70.752C16.1662 70.392 16.3422 69.924 16.3422 69.348V65.796H17.2542V72H16.3422V70.92C15.8382 71.728 15.1302 72.132 14.2182 72.132Z" fill="white"/>
<path d="M19.3328 72V65.796H20.2568V67.416C20.4968 66.88 20.8368 66.452 21.2768 66.132C21.7168 65.812 22.2208 65.664 22.7888 65.688V66.684H22.7168C22.0048 66.684 21.4168 66.932 20.9528 67.428C20.4888 67.924 20.2568 68.624 20.2568 69.528V72H19.3328Z" fill="white"/>
<path d="M24.196 72V65.796H25.12V67.416C25.36 66.88 25.7 66.452 26.14 66.132C26.58 65.812 27.084 65.664 27.652 65.688V66.684H27.58C26.868 66.684 26.28 66.932 25.816 67.428C25.352 67.924 25.12 68.624 25.12 69.528V72H24.196Z" fill="white"/>
<path d="M31.5018 72.144C30.6298 72.144 29.8938 71.844 29.2938 71.244C28.7018 70.636 28.4058 69.86 28.4058 68.916V68.892C28.4058 67.988 28.6898 67.224 29.2578 66.6C29.8258 65.976 30.5338 65.664 31.3818 65.664C32.2698 65.664 32.9738 65.976 33.4938 66.6C34.0138 67.224 34.2738 68.004 34.2738 68.94C34.2738 69.068 34.2698 69.168 34.2618 69.24H29.3418C29.4058 69.896 29.6418 70.412 30.0498 70.788C30.4658 71.156 30.9578 71.34 31.5258 71.34C32.2698 71.34 32.9218 71.048 33.4818 70.464L34.0578 70.98C33.3618 71.756 32.5098 72.144 31.5018 72.144ZM29.3418 68.556H33.3378C33.2898 67.948 33.0938 67.444 32.7498 67.044C32.4058 66.644 31.9418 66.444 31.3578 66.444C30.8218 66.444 30.3658 66.644 29.9898 67.044C29.6218 67.444 29.4058 67.948 29.3418 68.556Z" fill="white"/>
<path d="M35.8913 72V65.796H36.8153V66.876C37.3033 66.068 38.0113 65.664 38.9393 65.664C39.6753 65.664 40.2553 65.892 40.6793 66.348C41.1033 66.796 41.3153 67.396 41.3153 68.148V72H40.3913V68.376C40.3913 67.792 40.2393 67.336 39.9353 67.008C39.6393 66.672 39.2193 66.504 38.6753 66.504C38.1393 66.504 37.6953 66.684 37.3433 67.044C36.9913 67.404 36.8153 67.872 36.8153 68.448V72H35.8913Z" fill="white"/>
<path d="M45.3619 72.108C44.8259 72.108 44.3979 71.968 44.0779 71.688C43.7659 71.4 43.6099 70.956 43.6099 70.356V66.612H42.7459V65.796H43.6099V63.924H44.5339V65.796H46.5019V66.612H44.5339V70.236C44.5339 70.924 44.8819 71.268 45.5779 71.268C45.8819 71.268 46.1819 71.196 46.4779 71.052V71.844C46.1419 72.02 45.7699 72.108 45.3619 72.108Z" fill="white"/>
<path d="M48.2214 72V63.24H49.1454V72H48.2214Z" fill="white"/>
<path d="M53.9418 70.968L55.9338 65.796H56.9178L54.3138 72.204C54.0498 72.836 53.7578 73.284 53.4378 73.548C53.1178 73.82 52.7218 73.956 52.2498 73.956C51.8018 73.956 51.3618 73.852 50.9298 73.644L51.2418 72.912C51.5378 73.064 51.8618 73.14 52.2138 73.14C52.4938 73.14 52.7298 73.052 52.9218 72.876C53.1138 72.708 53.3018 72.408 53.4858 71.976L50.6658 65.796H51.6858L53.9418 70.968Z" fill="white"/>
<path d="M62.0613 72V63.24H62.9853V72H62.0613Z" fill="white"/>
<path d="M70.2776 71.196C69.6536 71.828 68.8816 72.144 67.9616 72.144C67.0416 72.144 66.2736 71.832 65.6576 71.208C65.0496 70.576 64.7456 69.816 64.7456 68.928V68.904C64.7456 68.016 65.0536 67.256 65.6696 66.624C66.2936 65.984 67.0656 65.664 67.9856 65.664C68.9056 65.664 69.6736 65.98 70.2896 66.612C70.9056 67.236 71.2136 67.992 71.2136 68.88V68.904C71.2136 69.792 70.9016 70.556 70.2776 71.196ZM67.9856 71.316C68.6496 71.316 69.1936 71.084 69.6176 70.62C70.0496 70.156 70.2656 69.592 70.2656 68.928V68.904C70.2656 68.232 70.0416 67.66 69.5936 67.188C69.1536 66.716 68.6096 66.48 67.9616 66.48C67.3056 66.48 66.7616 66.716 66.3296 67.188C65.9056 67.652 65.6936 68.216 65.6936 68.88V68.904C65.6936 69.576 65.9136 70.148 66.3536 70.62C66.7936 71.084 67.3376 71.316 67.9856 71.316Z" fill="white"/>
<path d="M75.6834 72.144C74.7874 72.144 74.0314 71.828 73.4154 71.196C72.8074 70.564 72.5034 69.808 72.5034 68.928V68.904C72.5034 68.016 72.8074 67.256 73.4154 66.624C74.0314 65.984 74.7874 65.664 75.6834 65.664C76.6434 65.664 77.4714 66.032 78.1674 66.768L77.5554 67.416C76.9634 66.792 76.3354 66.48 75.6714 66.48C75.0474 66.48 74.5194 66.712 74.0874 67.176C73.6634 67.64 73.4514 68.208 73.4514 68.88V68.904C73.4514 69.576 73.6674 70.148 74.0994 70.62C74.5394 71.084 75.0834 71.316 75.7314 71.316C76.4194 71.316 77.0514 71.008 77.6274 70.392L78.2154 70.944C77.4954 71.744 76.6514 72.144 75.6834 72.144Z" fill="white"/>
<path d="M81.5909 72.132C80.9669 72.132 80.4229 71.96 79.9589 71.616C79.5029 71.272 79.2749 70.8 79.2749 70.2V70.176C79.2749 69.536 79.5149 69.044 79.9949 68.7C80.4749 68.348 81.1189 68.172 81.9269 68.172C82.5749 68.172 83.2109 68.26 83.8349 68.436V68.22C83.8349 67.668 83.6749 67.248 83.3549 66.96C83.0349 66.672 82.5789 66.528 81.9869 66.528C81.3949 66.528 80.7669 66.68 80.1029 66.984L79.8269 66.228C80.5789 65.884 81.3309 65.712 82.0829 65.712C82.9629 65.712 83.6309 65.94 84.0869 66.396C84.5109 66.82 84.7229 67.424 84.7229 68.208V72H83.8349V71.064C83.2909 71.776 82.5429 72.132 81.5909 72.132ZM81.7709 71.4C82.3469 71.4 82.8349 71.244 83.2349 70.932C83.6429 70.612 83.8469 70.208 83.8469 69.72V69.12C83.2389 68.944 82.6309 68.856 82.0229 68.856C81.4469 68.856 80.9989 68.972 80.6789 69.204C80.3669 69.436 80.2109 69.748 80.2109 70.14V70.164C80.2109 70.54 80.3589 70.84 80.6549 71.064C80.9589 71.288 81.3309 71.4 81.7709 71.4Z" fill="white"/>
<path d="M88.7095 72.108C88.1735 72.108 87.7455 71.968 87.4255 71.688C87.1135 71.4 86.9575 70.956 86.9575 70.356V66.612H86.0935V65.796H86.9575V63.924H87.8815V65.796H89.8495V66.612H87.8815V70.236C87.8815 70.924 88.2295 71.268 88.9255 71.268C89.2295 71.268 89.5295 71.196 89.8255 71.052V71.844C89.4895 72.02 89.1175 72.108 88.7095 72.108Z" fill="white"/>
<path d="M94.0213 72.144C93.1493 72.144 92.4133 71.844 91.8133 71.244C91.2213 70.636 90.9253 69.86 90.9253 68.916V68.892C90.9253 67.988 91.2093 67.224 91.7773 66.6C92.3453 65.976 93.0533 65.664 93.9013 65.664C94.7893 65.664 95.4933 65.976 96.0133 66.6C96.5333 67.224 96.7933 68.004 96.7933 68.94C96.7933 69.068 96.7893 69.168 96.7813 69.24H91.8613C91.9253 69.896 92.1613 70.412 92.5693 70.788C92.9853 71.156 93.4773 71.34 94.0453 71.34C94.7893 71.34 95.4413 71.048 96.0013 70.464L96.5773 70.98C95.8813 71.756 95.0293 72.144 94.0213 72.144ZM91.8613 68.556H95.8573C95.8093 67.948 95.6133 67.444 95.2693 67.044C94.9253 66.644 94.4613 66.444 93.8773 66.444C93.3413 66.444 92.8853 66.644 92.5093 67.044C92.1413 67.444 91.9253 67.948 91.8613 68.556Z" fill="white"/>
<path d="M101.015 72.132C100.223 72.132 99.5309 71.84 98.9389 71.256C98.3469 70.672 98.0509 69.892 98.0509 68.916V68.892C98.0509 67.924 98.3469 67.144 98.9389 66.552C99.5309 65.96 100.223 65.664 101.015 65.664C101.991 65.664 102.783 66.104 103.391 66.984V63.24H104.315V72H103.391V70.752C102.767 71.672 101.975 72.132 101.015 72.132ZM101.183 71.304C101.783 71.304 102.307 71.08 102.755 70.632C103.203 70.176 103.427 69.6 103.427 68.904V68.88C103.427 68.192 103.203 67.624 102.755 67.176C102.307 66.72 101.783 66.492 101.183 66.492C100.559 66.492 100.039 66.708 99.6229 67.14C99.2069 67.572 98.9989 68.152 98.9989 68.88V68.904C98.9989 69.616 99.2109 70.196 99.6349 70.644C100.059 71.084 100.575 71.304 101.183 71.304Z" fill="white"/>
<path d="M110.001 64.44V63.42H111.057V64.44H110.001ZM110.061 72V65.796H110.985V72H110.061Z" fill="white"/>
<path d="M113.13 72V65.796H114.054V66.876C114.542 66.068 115.25 65.664 116.178 65.664C116.914 65.664 117.494 65.892 117.918 66.348C118.342 66.796 118.554 67.396 118.554 68.148V72H117.63V68.376C117.63 67.792 117.478 67.336 117.174 67.008C116.878 66.672 116.458 66.504 115.914 66.504C115.378 66.504 114.934 66.684 114.582 67.044C114.23 67.404 114.054 67.872 114.054 68.448V72H113.13Z" fill="white"/>
<path d="M127.17 72.06L123.558 63.6H124.614L127.602 70.836L130.602 63.6H131.622L128.01 72.06H127.17Z" fill="white"/>
<path d="M132.911 64.44V63.42H133.967V64.44H132.911ZM132.971 72V65.796H133.895V72H132.971Z" fill="white"/>
<path d="M138.752 72.144C137.88 72.144 137.144 71.844 136.544 71.244C135.952 70.636 135.656 69.86 135.656 68.916V68.892C135.656 67.988 135.94 67.224 136.508 66.6C137.076 65.976 137.784 65.664 138.632 65.664C139.52 65.664 140.224 65.976 140.744 66.6C141.264 67.224 141.524 68.004 141.524 68.94C141.524 69.068 141.52 69.168 141.512 69.24H136.592C136.656 69.896 136.892 70.412 137.3 70.788C137.716 71.156 138.208 71.34 138.776 71.34C139.52 71.34 140.172 71.048 140.732 70.464L141.308 70.98C140.612 71.756 139.76 72.144 138.752 72.144ZM136.592 68.556H140.588C140.54 67.948 140.344 67.444 140 67.044C139.656 66.644 139.192 66.444 138.608 66.444C138.072 66.444 137.616 66.644 137.24 67.044C136.872 67.444 136.656 67.948 136.592 68.556Z" fill="white"/>
<path d="M143.141 72V65.796H144.065V66.876C144.553 66.068 145.261 65.664 146.189 65.664C146.925 65.664 147.505 65.892 147.929 66.348C148.353 66.796 148.565 67.396 148.565 68.148V72H147.641V68.376C147.641 67.792 147.489 67.336 147.185 67.008C146.889 66.672 146.469 66.504 145.925 66.504C145.389 66.504 144.945 66.684 144.593 67.044C144.241 67.404 144.065 67.872 144.065 68.448V72H143.141Z" fill="white"/>
<path d="M150.536 72V65.796H151.46V66.876C151.948 66.068 152.656 65.664 153.584 65.664C154.32 65.664 154.9 65.892 155.324 66.348C155.748 66.796 155.96 67.396 155.96 68.148V72H155.036V68.376C155.036 67.792 154.884 67.336 154.58 67.008C154.284 66.672 153.864 66.504 153.32 66.504C152.784 66.504 152.34 66.684 151.988 67.044C151.636 67.404 151.46 67.872 151.46 68.448V72H150.536Z" fill="white"/>
<path d="M159.778 72.132C159.154 72.132 158.61 71.96 158.146 71.616C157.69 71.272 157.462 70.8 157.462 70.2V70.176C157.462 69.536 157.702 69.044 158.182 68.7C158.662 68.348 159.306 68.172 160.114 68.172C160.762 68.172 161.398 68.26 162.022 68.436V68.22C162.022 67.668 161.862 67.248 161.542 66.96C161.222 66.672 160.766 66.528 160.174 66.528C159.582 66.528 158.954 66.68 158.29 66.984L158.014 66.228C158.766 65.884 159.518 65.712 160.27 65.712C161.15 65.712 161.818 65.94 162.274 66.396C162.698 66.82 162.91 67.424 162.91 68.208V72H162.022V71.064C161.478 71.776 160.73 72.132 159.778 72.132ZM159.958 71.4C160.534 71.4 161.022 71.244 161.422 70.932C161.83 70.612 162.034 70.208 162.034 69.72V69.12C161.426 68.944 160.818 68.856 160.21 68.856C159.634 68.856 159.186 68.972 158.866 69.204C158.554 69.436 158.398 69.748 158.398 70.14V70.164C158.398 70.54 158.546 70.84 158.842 71.064C159.146 71.288 159.518 71.4 159.958 71.4Z" fill="white"/>
<path d="M164.544 73.464L164.4 73.044C164.984 72.836 165.252 72.488 165.204 72H164.772V70.74H165.876V71.82C165.876 72.3 165.768 72.668 165.552 72.924C165.344 73.18 165.008 73.36 164.544 73.464Z" fill="white"/>
<path d="M170.855 72L174.683 63.54H175.571L179.399 72H178.379L177.395 69.78H172.823L171.827 72H170.855ZM173.195 68.928H177.023L175.115 64.644L173.195 68.928Z" fill="white"/>
<path d="M183.062 72.132C182.326 72.132 181.746 71.908 181.322 71.46C180.898 71.004 180.686 70.4 180.686 69.648V65.796H181.61V69.42C181.61 70.004 181.758 70.464 182.054 70.8C182.358 71.128 182.782 71.292 183.326 71.292C183.862 71.292 184.306 71.112 184.658 70.752C185.01 70.392 185.186 69.924 185.186 69.348V65.796H186.098V72H185.186V70.92C184.682 71.728 183.974 72.132 183.062 72.132Z" fill="white"/>
<path d="M190.229 72.12C189.781 72.12 189.325 72.04 188.861 71.88C188.405 71.712 188.005 71.488 187.661 71.208L188.129 70.548C188.833 71.076 189.549 71.34 190.277 71.34C190.653 71.34 190.961 71.252 191.201 71.076C191.441 70.892 191.561 70.652 191.561 70.356V70.332C191.561 70.052 191.429 69.836 191.165 69.684C190.909 69.532 190.524 69.384 190.012 69.24C189.7 69.152 189.453 69.072 189.269 69C189.085 68.928 188.877 68.828 188.645 68.7C188.413 68.564 188.241 68.396 188.129 68.196C188.017 67.996 187.961 67.76 187.961 67.488V67.464C187.961 66.936 188.157 66.508 188.549 66.18C188.949 65.852 189.457 65.688 190.073 65.688C190.873 65.688 191.617 65.916 192.305 66.372L191.885 67.068C191.269 66.668 190.657 66.468 190.049 66.468C189.689 66.468 189.397 66.552 189.173 66.72C188.957 66.888 188.849 67.104 188.849 67.368V67.392C188.849 67.504 188.881 67.608 188.945 67.704C189.009 67.8 189.081 67.88 189.161 67.944C189.241 68.008 189.365 68.076 189.533 68.148C189.709 68.22 189.848 68.272 189.952 68.304C190.056 68.336 190.221 68.388 190.445 68.46C190.677 68.532 190.869 68.596 191.021 68.652C191.181 68.708 191.357 68.788 191.549 68.892C191.749 68.988 191.905 69.096 192.017 69.216C192.137 69.328 192.236 69.472 192.316 69.648C192.396 69.824 192.437 70.02 192.437 70.236V70.26C192.437 70.836 192.228 71.292 191.812 71.628C191.396 71.956 190.869 72.12 190.229 72.12Z" fill="white"/>
<path d="M196.112 72.108C195.576 72.108 195.148 71.968 194.828 71.688C194.516 71.4 194.36 70.956 194.36 70.356V66.612H193.496V65.796H194.36V63.924H195.284V65.796H197.252V66.612H195.284V70.236C195.284 70.924 195.632 71.268 196.328 71.268C196.632 71.268 196.932 71.196 197.228 71.052V71.844C196.892 72.02 196.52 72.108 196.112 72.108Z" fill="white"/>
<path d="M198.887 72V65.796H199.811V67.416C200.051 66.88 200.391 66.452 200.831 66.132C201.271 65.812 201.775 65.664 202.343 65.688V66.684H202.271C201.559 66.684 200.971 66.932 200.507 67.428C200.043 67.924 199.811 68.624 199.811 69.528V72H198.887Z" fill="white"/>
<path d="M203.775 64.44V63.42H204.831V64.44H203.775ZM203.835 72V65.796H204.759V72H203.835Z" fill="white"/>
<path d="M208.751 72.132C208.127 72.132 207.583 71.96 207.119 71.616C206.663 71.272 206.435 70.8 206.435 70.2V70.176C206.435 69.536 206.675 69.044 207.155 68.7C207.635 68.348 208.279 68.172 209.087 68.172C209.735 68.172 210.371 68.26 210.995 68.436V68.22C210.995 67.668 210.835 67.248 210.515 66.96C210.195 66.672 209.739 66.528 209.147 66.528C208.555 66.528 207.927 66.68 207.263 66.984L206.987 66.228C207.739 65.884 208.491 65.712 209.243 65.712C210.123 65.712 210.791 65.94 211.247 66.396C211.671 66.82 211.883 67.424 211.883 68.208V72H210.995V71.064C210.451 71.776 209.703 72.132 208.751 72.132ZM208.931 71.4C209.507 71.4 209.995 71.244 210.395 70.932C210.803 70.612 211.007 70.208 211.007 69.72V69.12C210.399 68.944 209.791 68.856 209.183 68.856C208.607 68.856 208.159 68.972 207.839 69.204C207.527 69.436 207.371 69.748 207.371 70.14V70.164C207.371 70.54 207.519 70.84 207.815 71.064C208.119 71.288 208.491 71.4 208.931 71.4Z" fill="white"/>
<path d="M377.532 75.0645C370.109 75.0645 362.853 72.8633 356.68 68.7392C350.508 64.6151 345.698 58.7534 342.857 51.8953C340.016 45.0371 339.273 37.4906 340.721 30.2101C342.169 22.9295 345.744 16.2419 350.993 10.993C356.242 5.74398 362.93 2.16938 370.21 0.721189C377.491 -0.727002 385.037 0.0162623 391.895 2.85699C398.753 5.69772 404.615 10.5083 408.739 16.6805C412.863 22.8526 415.065 30.1091 415.065 37.5323C415.052 47.4825 411.093 57.0216 404.057 64.0574C397.022 71.0933 387.483 75.0517 377.532 75.0645ZM377.532 3.42744C370.787 3.42744 364.193 5.42765 358.585 9.17514C352.976 12.9226 348.605 18.2491 346.023 24.4809C343.442 30.7128 342.767 37.5701 344.083 44.1858C345.399 50.8015 348.647 56.8784 353.416 61.648C358.186 66.4177 364.263 69.6659 370.879 70.9818C377.494 72.2977 384.352 71.6224 390.584 69.041C396.815 66.4597 402.142 62.0884 405.889 56.4799C409.637 50.8714 411.637 44.2776 411.637 37.5323C411.626 28.4904 408.03 19.8219 401.636 13.4283C395.243 7.03471 386.574 3.43811 377.532 3.42744Z" fill="white"/>
<path d="M403.71 34.8145C403.71 40.758 401.29 45.9193 397.129 49.1693C393.903 51.6371 389.992 52.7822 384.734 52.7822H371.452C371.369 52.7816 371.288 52.7627 371.214 52.7269C371.14 52.6911 371.075 52.6393 371.023 52.5753C370.972 52.5113 370.935 52.4366 370.915 52.3567C370.896 52.2767 370.895 52.1934 370.911 52.1129L374.524 35.1774C374.55 35.0536 374.618 34.9427 374.717 34.8633C374.815 34.7839 374.938 34.7411 375.065 34.7419H383.444C383.526 34.7414 383.607 34.7592 383.681 34.794C383.755 34.8289 383.82 34.8799 383.872 34.9433C383.924 35.0067 383.961 35.081 383.98 35.1605C383.999 35.2401 384.001 35.323 383.984 35.4032L382.186 43.9274C382.167 44.0081 382.168 44.0919 382.186 44.1725C382.205 44.2531 382.242 44.3284 382.294 44.3928C382.346 44.4572 382.412 44.509 382.486 44.5443C382.561 44.5797 382.643 44.5976 382.726 44.5967H385.016C388.242 44.5967 389.952 44 391.323 42.4516C393.013 40.4077 393.949 37.8454 393.976 35.1935C393.976 31.7177 392.363 30.0726 388.815 30.0726H370.089C369.962 30.0717 369.839 30.1146 369.741 30.194C369.642 30.2733 369.574 30.3843 369.548 30.508L369.032 33.1532L364.936 52.3468C364.908 52.4698 364.84 52.5799 364.742 52.659C364.643 52.7382 364.521 52.7816 364.395 52.7822H355.839C355.757 52.7816 355.675 52.7627 355.601 52.7269C355.527 52.6911 355.462 52.6393 355.41 52.5753C355.359 52.5113 355.322 52.4366 355.302 52.3567C355.283 52.2767 355.282 52.1934 355.298 52.1129L359.863 30.7177C359.88 30.6376 359.879 30.5547 359.859 30.4751C359.84 30.3955 359.803 30.3213 359.751 30.2578C359.699 30.1944 359.634 30.1434 359.56 30.1085C359.486 30.0737 359.405 30.0559 359.323 30.0564H351.952C351.869 30.0558 351.788 30.0368 351.714 30.0011C351.64 29.9653 351.575 29.9135 351.523 29.8495C351.472 29.7855 351.435 29.7108 351.415 29.6309C351.396 29.5509 351.395 29.4676 351.411 29.3871L352.823 22.7258C352.849 22.602 352.917 22.4911 353.015 22.4117C353.114 22.3323 353.236 22.2894 353.363 22.2903H390.048C395.347 22.2903 397.911 23.0967 400.282 25.3951C402.524 27.5887 403.71 30.7903 403.71 34.8145Z" fill="white"/>
</svg>
