<svg width="318" height="31" viewBox="0 0 318 31" fill="none" xmlns="http://www.w3.org/2000/svg">
<g clip-path="url(#clip0_666_1257)">
<path d="M9.64961 30.2003H4.43971C4.36468 30.2027 4.29011 30.1873 4.22194 30.1553C4.15377 30.1233 4.09386 30.0756 4.04696 30.0159C4.00006 29.9562 3.96747 29.8862 3.95176 29.8114C3.93605 29.7367 3.93767 29.6592 3.95647 29.5852L8.75864 6.61202C8.77745 6.53801 8.77906 6.46056 8.76335 6.3858C8.74765 6.31105 8.71505 6.24105 8.66815 6.18136C8.62126 6.12167 8.56135 6.07392 8.49317 6.04191C8.425 6.0099 8.35044 5.9945 8.2754 5.99694H0.498311C0.422035 6.00188 0.345695 5.98833 0.27556 5.9574C0.205425 5.92647 0.143495 5.87904 0.0948558 5.81901C0.0462168 5.75897 0.0122559 5.68805 -0.0042382 5.61206C-0.0207323 5.53606 -0.0192891 5.45717 -2.70995e-05 5.38186L0.87584 1.19932C0.902908 1.08546 0.966745 0.984161 1.05711 0.911664C1.14748 0.839166 1.25913 0.799672 1.37418 0.799515H23.6484C23.7234 0.795905 23.7983 0.809629 23.8675 0.839661C23.9366 0.869692 23.9981 0.915253 24.0475 0.972934C24.0969 1.03061 24.1328 1.09892 24.1526 1.17274C24.1724 1.24656 24.1756 1.32399 24.1618 1.39922L23.2557 5.59713C23.2344 5.71109 23.1742 5.81369 23.0858 5.88685C22.9974 5.96 22.8864 5.99899 22.7725 5.99694H15.4787C15.3655 5.99781 15.256 6.03787 15.1682 6.11053C15.0803 6.18319 15.0194 6.28413 14.9954 6.39674L10.1479 29.8005C10.1209 29.9144 10.057 30.0157 9.96667 30.0882C9.87631 30.1607 9.76465 30.2002 9.64961 30.2003Z" fill="#231F20"/>
<path d="M30.8055 17.6835L28.2383 29.8005C28.2169 29.9145 28.1567 30.0171 28.0683 30.0902C27.9799 30.1634 27.8689 30.2024 27.755 30.2003H22.6508C22.5767 30.1998 22.5037 30.1824 22.437 30.1494C22.3704 30.1165 22.3117 30.0688 22.2655 30.0099C22.2192 29.951 22.1864 29.8823 22.1694 29.8088C22.1525 29.7354 22.1519 29.659 22.1676 29.5852L28.0721 1.19934C28.0939 1.08269 28.1563 0.977977 28.2479 0.904502C28.3394 0.831027 28.454 0.793747 28.5705 0.799536H33.6898C33.7636 0.798281 33.8368 0.813742 33.904 0.844801C33.9712 0.87586 34.0308 0.921741 34.0785 0.979128C34.1262 1.03652 34.1608 1.10397 34.1797 1.17663C34.1987 1.24928 34.2015 1.32532 34.1881 1.39924L32.1344 11.2405C32.1212 11.3152 32.1242 11.3919 32.143 11.4653C32.1619 11.5387 32.1963 11.607 32.2437 11.6655C32.2911 11.7241 32.3504 11.7714 32.4176 11.8042C32.4848 11.837 32.5582 11.8545 32.6327 11.8556H43.0827C43.1966 11.8576 43.3075 11.8187 43.396 11.7455C43.4844 11.6723 43.5446 11.5697 43.5659 11.4558L45.6952 1.19934C45.7197 1.08413 45.7829 0.981211 45.8738 0.908255C45.9647 0.8353 46.0778 0.79686 46.1935 0.799536H51.343C51.4168 0.798281 51.49 0.813742 51.5572 0.844801C51.6245 0.87586 51.6841 0.921741 51.7318 0.979128C51.7794 1.03652 51.814 1.10397 51.833 1.17663C51.8519 1.24928 51.8548 1.32532 51.8414 1.39924L45.816 29.8005C45.7947 29.9145 45.7345 30.0171 45.646 30.0902C45.5576 30.1634 45.4467 30.2024 45.3328 30.2003H40.2588C40.1834 30.2021 40.1086 30.1864 40.0401 30.1545C39.9715 30.1225 39.911 30.0752 39.863 30.0159C39.815 29.9567 39.7809 29.8872 39.7631 29.8126C39.7453 29.738 39.7444 29.6603 39.7604 29.5852L42.2823 17.8987C42.2955 17.8241 42.2925 17.7474 42.2736 17.674C42.2548 17.6006 42.2204 17.5322 42.173 17.4737C42.1256 17.4152 42.0662 17.3679 41.9991 17.3351C41.9319 17.3022 41.8585 17.2847 41.784 17.2837H31.2887C31.1755 17.2845 31.066 17.3246 30.9782 17.3973C30.8904 17.4699 30.8295 17.5709 30.8055 17.6835Z" fill="#231F20"/>
<path d="M77.6501 2.55249C80.5495 4.76678 82.1805 8.54952 82.1805 13.178C82.1805 23.0654 75.1131 30.9999 66.3696 30.9999C63.2052 31.0483 60.1253 29.9594 57.6713 27.9245C56.3118 26.6652 55.2446 25.1135 54.5473 23.3821C53.8499 21.6506 53.5397 19.7828 53.6393 17.9141C53.5606 13.2141 55.2148 8.65485 58.2753 5.13583C59.7069 3.48599 61.4731 2.17232 63.4521 1.28558C65.431 0.398844 67.5754 -0.039816 69.7371 -8.67213e-05C72.5762 -0.0412293 75.3522 0.854237 77.6501 2.55249ZM63.0171 8.14972C60.8427 11.0012 59.6536 14.5039 59.6344 18.114C59.6344 22.8347 62.3224 25.9255 66.3545 25.9255C71.5946 25.9255 76.0947 19.7747 76.0947 12.7013C76.0947 7.88831 73.5879 4.84366 69.6012 4.84366C68.3285 4.84531 67.0732 5.1442 65.9317 5.71735C64.7903 6.29049 63.7932 7.12262 63.0171 8.14972Z" fill="#231F20"/>
<path d="M100.741 21.2664L111.115 1.06103C111.16 0.97916 111.226 0.911415 111.305 0.865281C111.385 0.819148 111.476 0.796424 111.568 0.799622H119.119C119.192 0.797806 119.265 0.813054 119.332 0.844208C119.399 0.875362 119.457 0.921603 119.504 0.979416C119.551 1.03723 119.584 1.10509 119.601 1.17785C119.618 1.25062 119.618 1.32636 119.602 1.39932L113.592 29.8006C113.568 29.9132 113.507 30.0142 113.419 30.0868C113.331 30.1595 113.222 30.1995 113.109 30.2004H108.11C108.035 30.2029 107.96 30.1875 107.892 30.1554C107.824 30.1234 107.764 30.0757 107.717 30.016C107.67 29.9563 107.638 29.8863 107.622 29.8115C107.606 29.7368 107.608 29.6593 107.627 29.5853L111.553 10.8408C111.553 10.7946 111.537 10.7498 111.509 10.7141C111.48 10.6783 111.44 10.6538 111.395 10.6448C111.351 10.6357 111.305 10.6426 111.265 10.6643C111.224 10.6861 111.193 10.7212 111.176 10.7639L101.315 29.9851C101.271 30.0687 101.205 30.1387 101.126 30.1874C101.046 30.2362 100.955 30.2619 100.861 30.2619H96.8597C96.7373 30.2628 96.6189 30.2179 96.527 30.1357C96.4351 30.0534 96.3762 29.9396 96.3613 29.816L94.2472 10.6101C94.2472 10.5571 94.2265 10.5063 94.1897 10.4688C94.1529 10.4313 94.1029 10.4102 94.0509 10.4102C93.9988 10.4102 93.9489 10.4313 93.912 10.4688C93.8752 10.5063 93.8545 10.5571 93.8545 10.6101L89.8225 29.8006C89.7985 29.9132 89.7376 30.0142 89.6498 30.0868C89.562 30.1595 89.4525 30.1995 89.3393 30.2004H84.2955C84.2205 30.2029 84.1459 30.1875 84.0777 30.1554C84.0096 30.1234 83.9497 30.0757 83.9028 30.016C83.8559 29.9563 83.8233 29.8863 83.8076 29.8115C83.7919 29.7368 83.7935 29.6593 83.8123 29.5853L89.747 1.19942C89.7654 1.08404 89.8248 0.979569 89.9139 0.905858C90.003 0.832148 90.1156 0.79434 90.2303 0.799622H97.6147C97.6794 0.791076 97.7451 0.795954 97.8079 0.813962C97.8707 0.831969 97.9292 0.862733 97.98 0.904399C98.0308 0.946066 98.0728 0.997773 98.1035 1.0564C98.1341 1.11504 98.1528 1.17938 98.1584 1.24555L100.424 21.2356C100.439 21.263 100.461 21.2861 100.487 21.3032C100.514 21.3202 100.543 21.3307 100.574 21.3337C100.605 21.3367 100.637 21.3321 100.665 21.3204C100.694 21.3087 100.72 21.2902 100.741 21.2664Z" fill="#231F20"/>
<path d="M127.167 23.8497L123.905 29.8928C123.853 29.9849 123.778 30.0616 123.688 30.1155C123.598 30.1694 123.496 30.1986 123.392 30.2004H118.635C118.534 30.1988 118.436 30.1711 118.349 30.1199C118.262 30.0687 118.189 29.9958 118.138 29.9079C118.086 29.8201 118.058 29.7203 118.055 29.6181C118.052 29.5159 118.075 29.4146 118.121 29.3239L134.128 1.09172C134.18 1.00372 134.253 0.93065 134.34 0.879501C134.427 0.828353 134.526 0.80083 134.627 0.799561H139.746C139.881 0.800161 140.011 0.847816 140.116 0.934569C140.22 1.02132 140.292 1.14193 140.32 1.27625L145.394 29.5084C145.407 29.5932 145.402 29.6799 145.379 29.7626C145.356 29.8453 145.316 29.922 145.262 29.9876C145.208 30.0532 145.14 30.1062 145.064 30.1429C144.987 30.1796 144.904 30.1992 144.82 30.2004H139.867C139.728 30.1984 139.594 30.1464 139.489 30.0535C139.384 29.9606 139.314 29.8329 139.293 29.6929L138.478 24.0496C138.459 23.9083 138.391 23.7787 138.285 23.6852C138.179 23.5918 138.044 23.5409 137.904 23.5421H127.665C127.562 23.5417 127.461 23.5702 127.373 23.6245C127.286 23.6788 127.214 23.7567 127.167 23.8497ZM135.427 8.70333L130.232 18.2986C130.182 18.3875 130.155 18.4884 130.155 18.5911C130.156 18.6938 130.182 18.7946 130.233 18.8835C130.283 18.9724 130.356 19.0461 130.443 19.0973C130.531 19.1485 130.63 19.1753 130.731 19.1751H137.088C137.171 19.1736 137.253 19.1543 137.328 19.1186C137.403 19.0828 137.47 19.0313 137.524 18.9674C137.578 18.9036 137.618 18.8288 137.642 18.748C137.666 18.6672 137.673 18.5821 137.662 18.4985L136.152 8.8571C136.13 8.78352 136.088 8.71736 136.033 8.66552C135.977 8.61368 135.908 8.57806 135.834 8.56235C135.76 8.54665 135.683 8.55145 135.612 8.57624C135.54 8.60104 135.476 8.64492 135.427 8.70333Z" fill="#231F20"/>
<path d="M167.864 9.56445C167.658 9.56089 167.461 9.47803 167.313 9.33254C167.164 9.18706 167.075 8.98973 167.064 8.78022C167.086 8.29942 167.013 7.81897 166.85 7.36731C166.687 6.91565 166.436 6.50197 166.113 6.15076C165.588 5.66396 164.973 5.28823 164.304 5.04538C163.635 4.80252 162.926 4.69739 162.217 4.73608C159.317 4.73608 157.278 6.27378 157.278 8.3958C157.278 9.9335 158.23 10.7331 161.175 11.7941C166.369 13.6394 168.197 14.4697 169.359 15.4846C170.108 16.0987 170.709 16.8798 171.115 17.7676C171.521 18.6553 171.721 19.6261 171.7 20.6051C171.663 22.1552 171.276 23.6758 170.569 25.049C169.862 26.4223 168.854 27.6114 167.623 28.5243C165.031 30.2521 161.975 31.1172 158.879 31C151.902 31 147.84 27.6017 147.84 21.866C147.811 21.4309 147.811 20.9942 147.84 20.559C147.862 20.3618 147.954 20.1796 148.099 20.0466C148.243 19.9135 148.431 19.8387 148.625 19.8363H153.156C153.268 19.8379 153.379 19.8632 153.482 19.9106C153.584 19.958 153.676 20.0264 153.751 20.1116C153.826 20.1969 153.883 20.297 153.918 20.4057C153.954 20.5145 153.967 20.6295 153.956 20.7435C153.956 20.9742 153.956 21.0664 153.956 21.2048C153.956 23.9419 156.327 25.8179 159.619 25.8179C162.639 25.8179 164.905 24.0957 164.905 21.8045C164.905 20.3898 164.21 19.4672 162.564 18.7291C162.005 18.4523 161.175 18.1448 157.928 17.0069C155.918 16.4477 154.055 15.4391 152.476 14.0545C151.339 12.7997 150.718 11.1487 150.74 9.44143C150.739 8.14814 151.007 6.86937 151.528 5.68974C152.049 4.51011 152.809 3.45652 153.76 2.59868C156.298 0.646571 159.456 -0.279216 162.624 -3.34495e-05C169.374 -3.34495e-05 173.195 2.95235 173.195 8.28816V8.76485C173.195 8.87116 173.174 8.97641 173.134 9.07444C173.093 9.17246 173.034 9.2613 172.96 9.33576C172.885 9.41021 172.797 9.46879 172.7 9.50805C172.603 9.54732 172.499 9.56649 172.395 9.56445H167.864Z" fill="#231F20"/>
<path d="M188.04 1.53764C188.094 1.30993 188.222 1.10733 188.403 0.962334C188.583 0.817338 188.807 0.73835 189.037 0.738037H198.43C203.156 0.738037 205.618 1.52226 207.747 3.69042C208.834 4.91015 209.673 6.33733 210.215 7.88933C210.756 9.44134 210.991 11.0873 210.903 12.7321C210.956 15.3343 210.457 17.9174 209.44 20.3056C208.424 22.6938 206.914 24.8309 205.014 26.5714C201.868 29.0976 197.931 30.381 193.93 30.185H183.359C183.207 30.1861 183.058 30.1525 182.921 30.0869C182.784 30.0212 182.663 29.9251 182.567 29.8055C182.472 29.686 182.404 29.5461 182.368 29.3962C182.333 29.2463 182.331 29.0902 182.362 28.9394L188.04 1.53764ZM194.081 24.7569C197.675 24.7569 199.804 23.9265 201.631 21.8968C203.653 19.3694 204.752 16.207 204.742 12.9474C204.814 11.8994 204.669 10.8478 204.318 9.8601C203.967 8.87235 203.417 7.97026 202.703 7.21175C201.268 6.13902 199.491 5.65094 197.72 5.8432H194.171C193.94 5.84215 193.716 5.92286 193.537 6.07152C193.358 6.22017 193.235 6.42755 193.19 6.65818L189.671 23.5729C189.639 23.7216 189.641 23.8757 189.676 24.0238C189.71 24.1718 189.777 24.31 189.872 24.4281C189.966 24.5463 190.085 24.6413 190.22 24.7062C190.355 24.7711 190.503 24.8042 190.653 24.803L194.081 24.7569Z" fill="#231F20"/>
<path d="M218.166 23.8036L214.859 29.9544C214.817 30.035 214.753 30.1022 214.676 30.1484C214.599 30.1945 214.51 30.2179 214.421 30.2158H209.467C209.38 30.2183 209.294 30.1966 209.217 30.1529C209.141 30.1093 209.078 30.0454 209.034 29.9681C208.991 29.8907 208.969 29.8028 208.971 29.7137C208.973 29.6247 208.998 29.5378 209.045 29.4623L225.142 1.04566C225.184 0.969092 225.245 0.90564 225.32 0.862245C225.395 0.81885 225.479 0.797186 225.565 0.799624H230.79C230.908 0.797626 231.023 0.838243 231.114 0.914257C231.205 0.990271 231.267 1.09676 231.289 1.2148L236.393 29.6007C236.404 29.6743 236.399 29.7493 236.379 29.8208C236.359 29.8923 236.324 29.9586 236.277 30.0154C236.23 30.0722 236.171 30.118 236.105 30.1499C236.039 30.1818 235.968 30.199 235.894 30.2004H230.775C230.656 30.1987 230.541 30.1549 230.45 30.0763C230.359 29.9977 230.298 29.8894 230.277 29.7699L229.537 23.9727C229.516 23.8532 229.455 23.7449 229.364 23.6663C229.273 23.5877 229.158 23.5439 229.039 23.5422H218.679C218.578 23.5287 218.475 23.5464 218.383 23.593C218.292 23.6396 218.216 23.7129 218.166 23.8036ZM226.305 8.88792L221.141 18.4524C221.099 18.5298 221.077 18.6171 221.078 18.7056C221.079 18.7941 221.103 18.8807 221.148 18.9569C221.192 19.0331 221.255 19.0961 221.331 19.1398C221.406 19.1835 221.492 19.2062 221.579 19.2059H228.163C228.235 19.2067 228.307 19.1915 228.373 19.1614C228.439 19.1312 228.497 19.0868 228.545 19.0312C228.592 18.9756 228.627 18.9102 228.647 18.8394C228.667 18.7687 228.672 18.6943 228.661 18.6215L227.226 9.08782C227.214 8.98311 227.169 8.88505 227.099 8.80727C227.029 8.7295 226.937 8.67589 226.836 8.6539C226.734 8.63191 226.629 8.64263 226.534 8.68457C226.439 8.72652 226.359 8.79759 226.305 8.88792Z" fill="#231F20"/>
<path d="M260.571 25.5719L259.665 29.8005C259.641 29.9132 259.58 30.0141 259.492 30.0868C259.404 30.1594 259.295 30.1995 259.181 30.2004H240.018C239.944 30.1993 239.87 30.1818 239.803 30.149C239.736 30.1161 239.677 30.0688 239.629 30.0103C239.582 29.9518 239.547 29.8834 239.528 29.81C239.51 29.7367 239.507 29.66 239.52 29.5853L245.47 1.19936C245.488 1.08398 245.547 0.979507 245.637 0.905796C245.726 0.832086 245.838 0.794278 245.953 0.799559H251.087C251.16 0.800566 251.231 0.817688 251.297 0.849731C251.362 0.881774 251.42 0.927964 251.466 0.985075C251.512 1.04219 251.545 1.10884 251.563 1.18038C251.581 1.25192 251.584 1.32662 251.57 1.39926L246.799 24.3417C246.783 24.4155 246.783 24.4918 246.8 24.5653C246.817 24.6388 246.85 24.7075 246.896 24.7664C246.943 24.8253 247.001 24.873 247.068 24.9059C247.135 24.9388 247.208 24.9562 247.282 24.9568H260.088C260.162 24.9574 260.235 24.9748 260.301 25.0077C260.368 25.0406 260.427 25.0883 260.473 25.1472C260.519 25.2062 260.552 25.2748 260.569 25.3483C260.586 25.4218 260.587 25.4981 260.571 25.5719Z" fill="#231F20"/>
<path d="M269.284 1.16861C269.308 1.06419 269.365 0.970969 269.447 0.904008C269.53 0.837046 269.632 0.80025 269.737 0.799561H280.021C283.66 0.799561 284.687 0.922576 286.061 1.53766C287.254 2.09676 288.259 3.00193 288.949 4.13981C289.64 5.27769 289.985 6.59769 289.942 7.93448C290.002 9.41777 289.594 10.8816 288.779 12.1125C287.964 13.3435 286.784 14.2771 285.412 14.7772V15.1463C286.48 15.6632 287.376 16.4881 287.988 17.5186C288.6 18.5492 288.901 19.74 288.855 20.9434C288.862 22.6938 288.349 24.4054 287.385 25.8542C286.42 27.3029 285.048 28.4212 283.449 29.0625C281.186 30.0193 278.732 30.4095 276.291 30.2004H263.923C263.854 30.1994 263.787 30.1831 263.725 30.1526C263.663 30.1222 263.609 30.0782 263.565 30.0239C263.522 29.9696 263.491 29.9063 263.475 29.8385C263.458 29.7707 263.457 29.7 263.47 29.6314L269.284 1.16861ZM275.324 25.1259C276.847 25.2759 278.385 25.1298 279.855 24.6954C280.724 24.4315 281.487 23.8899 282.031 23.1506C282.575 22.4113 282.87 21.5135 282.875 20.5897C282.882 19.8026 282.63 19.0356 282.16 18.4113C281.689 17.7869 281.026 17.3412 280.277 17.1453C279.178 16.8298 278.031 16.7255 276.895 16.8378H272.364C272.257 16.8392 272.153 16.8782 272.071 16.9482C271.988 17.0182 271.932 17.1149 271.911 17.2222L270.401 24.557C270.388 24.6268 270.39 24.6989 270.407 24.7678C270.424 24.8368 270.457 24.9009 270.502 24.9555C270.547 25.0101 270.603 25.0537 270.667 25.0832C270.73 25.1127 270.799 25.1273 270.869 25.1259H275.324ZM277.574 12.8244C278.886 12.9864 280.217 12.8499 281.47 12.4246C281.995 12.2573 282.478 11.9743 282.883 11.5957C283.289 11.2171 283.608 10.7521 283.817 10.2339C284.026 9.71572 284.12 9.15698 284.093 8.59743C284.066 8.03788 283.918 7.49128 283.66 6.99649C283.24 6.33052 282.596 5.8438 281.848 5.62793C280.848 5.47569 279.836 5.43444 278.828 5.50492H274.841C274.733 5.50209 274.628 5.53727 274.542 5.60452C274.457 5.67176 274.397 5.76695 274.373 5.87397L273.059 12.24C273.046 12.3094 273.048 12.3808 273.064 12.4494C273.081 12.518 273.111 12.5823 273.154 12.6377C273.197 12.6931 273.251 12.7385 273.313 12.7707C273.375 12.8029 273.443 12.8212 273.512 12.8244H277.574Z" fill="#231F20"/>
<path d="M317.894 1.5377L305.511 19.0675C305.342 19.2994 305.229 19.5677 305.179 19.8517L303.095 29.7391C303.071 29.8517 303.01 29.9526 302.922 30.0253C302.834 30.098 302.725 30.138 302.611 30.1389H297.341C297.267 30.1383 297.194 30.1209 297.127 30.088C297.061 30.0551 297.002 30.0074 296.956 29.9485C296.909 29.8895 296.877 29.8209 296.86 29.7474C296.843 29.6739 296.842 29.5976 296.858 29.5238L298.896 19.7902C298.983 19.3786 298.946 18.9501 298.791 18.56L291.95 1.5377C291.917 1.46188 291.903 1.37875 291.91 1.29605C291.917 1.21335 291.944 1.13377 291.989 1.06471C292.035 0.995658 292.096 0.939369 292.169 0.901083C292.241 0.862797 292.321 0.843758 292.403 0.845739H297.99C298.091 0.844933 298.19 0.875379 298.274 0.933044C298.357 0.99071 298.422 1.07287 298.459 1.16866L302.672 12.3016C302.706 12.387 302.762 12.4615 302.834 12.5168C302.907 12.5722 302.992 12.6065 303.082 12.616C303.172 12.6255 303.263 12.6098 303.345 12.5707C303.427 12.5315 303.497 12.4704 303.548 12.3939L311.098 0.953378C311.147 0.885625 311.21 0.830703 311.284 0.793238C311.357 0.755774 311.439 0.736864 311.521 0.7381H317.471C317.566 0.728559 317.661 0.747812 317.745 0.793435C317.83 0.839058 317.899 0.909013 317.944 0.994494C317.989 1.07998 318.008 1.17716 317.999 1.27382C317.991 1.37048 317.954 1.46229 317.894 1.5377Z" fill="#231F20"/>
</g>
<defs>
<clipPath id="clip0_666_1257">
<rect width="318" height="31" fill="white"/>
</clipPath>
</defs>
</svg>
